<?xml version="1.0" encoding="UTF-8" standalone="no"?>
<!-- Created with Inkscape (http://www.inkscape.org/) -->

<svg
   width="90.715637mm"
   height="38.185669mm"
   viewBox="0 0 90.715637 38.185669"
   version="1.1"
   id="svg780"
   xmlns="http://www.w3.org/2000/svg"
   xmlns:svg="http://www.w3.org/2000/svg">
  <defs
     id="defs777" />
  <g
     id="layer1"
     transform="translate(-22.557114,-146.80302)">
    <g
       aria-label="this is fine this is f ine this is ⌧ine this is n⌧t abcdefghijklmnopqrstuvwxyz"
       id="text2880"
       style="font-size:4.23333px;line-height:1.25;font-family:'CMU Serif';-inkscape-font-specification:'CMU Serif';letter-spacing:0px;word-spacing:0px;stroke-width:0.264583">
      <path
         d="m 22.567861,157.45326 v -0.15728 q 0.328977,-0.0135 0.543528,-0.24317 0.221702,-0.236 0.29322,-0.52206 0.07867,-0.28607 0.08582,-0.61505 h 0.178793 v 1.31592 h 1.02269 v 0.22169 h -1.02269 v 1.98818 q 0,0.77238 0.479163,0.77238 0.207398,0 0.343281,-0.2074 0.135876,-0.21455 0.135876,-0.5936 v -0.39334 h 0.178792 v 0.40765 q 0,0.38619 -0.178792,0.67942 -0.178791,0.28606 -0.529224,0.28606 -0.12873,0 -0.25746,-0.0358 -0.128731,-0.0285 -0.29322,-0.11437 -0.164495,-0.0858 -0.271763,-0.29322 -0.100129,-0.21455 -0.100129,-0.52207 v -1.97387 z"
         id="path2882"
         style="stroke-width:0.264583" />
      <path
         d="m 25.435689,160.31393 v -0.22171 q 0.37904,0 0.46486,-0.0429 0.09297,-0.05 0.09297,-0.27892 v -3.71887 q 0,-0.26461 -0.09297,-0.32897 -0.09297,-0.0715 -0.46486,-0.0715 v -0.2217 l 1.029843,-0.0787 v 2.48878 h 0.0071 q 0.114421,-0.25746 0.371887,-0.47201 0.257461,-0.21455 0.657956,-0.21455 0.536375,0 0.750926,0.26461 0.157331,0.17879 0.185944,0.37904 0.03576,0.20025 0.03576,0.71517 v 1.36596 q 0.0071,0.15018 0.121584,0.18595 0.114422,0.0286 0.436253,0.0286 v 0.22169 q -0.729472,-0.0215 -0.800989,-0.0215 -0.05722,0 -0.808139,0.0215 v -0.22169 q 0.379038,0 0.464858,-0.0429 0.09297,-0.05 0.09297,-0.27892 v -1.66633 q 0,-0.36474 -0.114422,-0.57929 -0.107275,-0.21455 -0.414797,-0.21455 -0.371887,0 -0.672258,0.31467 -0.293218,0.30753 -0.293218,0.8296 v 1.3159 q 0,0.22886 0.08582,0.27892 0.09297,0.0429 0.47201,0.0429 v 0.22169 q -0.729471,-0.0215 -0.800989,-0.0215 -0.05722,0 -0.808139,0.0215 z"
         id="path2884"
         style="stroke-width:0.264583" />
      <path
         d="m 29.412026,160.31393 v -0.22171 q 0.379039,0 0.464859,-0.0429 0.09297,-0.05 0.09297,-0.27892 v -1.92379 q 0,-0.26461 -0.09297,-0.32897 -0.08582,-0.0644 -0.436252,-0.0644 v -0.22171 l 1.001235,-0.0787 v 2.62467 q 0,0.21455 0.07151,0.26462 0.07867,0.05 0.4291,0.05 v 0.22169 q -0.729471,-0.0214 -0.743775,-0.0214 -0.100129,0 -0.786684,0.0214 z m 0.300371,-4.40543 q 0,-0.14309 0.107276,-0.25746 0.114421,-0.12164 0.271763,-0.12164 0.157331,0 0.264612,0.10728 0.114421,0.10727 0.114421,0.27175 0,0.16455 -0.114421,0.27177 -0.107276,0.10728 -0.264612,0.10728 -0.164495,0 -0.271763,-0.11437 -0.107276,-0.11438 -0.107276,-0.26461 z"
         id="path2886"
         style="stroke-width:0.264583" />
      <path
         d="m 31.393045,160.22095 v -0.94401 q 0,-0.0787 0,-0.10727 0.0071,-0.0285 0.0286,-0.05 0.02145,-0.0215 0.06437,-0.0215 0.05006,0 0.06437,0.0215 0.02145,0.0215 0.03576,0.10018 0.107275,0.49347 0.336128,0.75808 0.236006,0.25746 0.657954,0.25746 0.400495,0 0.600742,-0.17879 0.207399,-0.1788 0.207399,-0.47201 0,-0.52209 -0.743776,-0.65796 -0.429099,-0.0858 -0.607893,-0.14309 -0.178791,-0.0573 -0.336128,-0.18595 -0.307522,-0.2503 -0.307522,-0.60789 0,-0.35759 0.271763,-0.61505 0.271765,-0.26461 0.872505,-0.26461 0.400495,0 0.672258,0.20024 0.07867,-0.0644 0.121584,-0.11437 0.09297,-0.0858 0.14304,-0.0858 0.05722,0 0.06436,0.0358 0.01436,0.0358 0.01436,0.13582 v 0.72233 q 0,0.0787 -0.0071,0.10728 0,0.0285 -0.02146,0.05 -0.02146,0.0135 -0.06437,0.0135 -0.07867,0 -0.08582,-0.0644 -0.05722,-0.86535 -0.836748,-0.86535 -0.421948,0 -0.615044,0.16455 -0.185943,0.15728 -0.185943,0.37903 0,0.12163 0.05722,0.21455 0.05722,0.0929 0.12873,0.15018 0.07867,0.05 0.214551,0.10018 0.143039,0.05 0.228854,0.0715 0.08582,0.0135 0.250308,0.05 0.572134,0.10727 0.815293,0.34328 0.30037,0.30037 0.30037,0.67941 0,0.42194 -0.286068,0.70802 -0.286067,0.28606 -0.865354,0.28606 -0.464858,0 -0.786684,-0.30751 -0.04291,0.0429 -0.07868,0.0787 -0.0286,0.0358 -0.04291,0.05 -0.0071,0.0135 -0.01436,0.0215 0,0.007 -0.0071,0.0135 -0.143039,0.14309 -0.178793,0.14309 -0.05722,0 -0.07151,-0.0358 -0.0071,-0.0358 -0.0071,-0.13582 z"
         id="path2888"
         style="stroke-width:0.264583" />
      <path
         d="m 36.592313,160.31393 v -0.22171 q 0.379039,0 0.464859,-0.0429 0.09297,-0.05 0.09297,-0.27892 v -1.92379 q 0,-0.26461 -0.09297,-0.32897 -0.08582,-0.0644 -0.436253,-0.0644 v -0.22171 l 1.001236,-0.0787 v 2.62467 q 0,0.21455 0.07151,0.26462 0.07867,0.05 0.429099,0.05 v 0.22169 q -0.72947,-0.0214 -0.743774,-0.0214 -0.100129,0 -0.786685,0.0214 z m 0.300371,-4.40543 q 0,-0.14309 0.107275,-0.25746 0.114422,-0.12164 0.271763,-0.12164 0.157332,0 0.264612,0.10728 0.114422,0.10727 0.114422,0.27175 0,0.16455 -0.114422,0.27177 -0.107275,0.10728 -0.264612,0.10728 -0.164494,0 -0.271763,-0.11437 -0.107275,-0.11438 -0.107275,-0.26461 z"
         id="path2890"
         style="stroke-width:0.264583" />
      <path
         d="m 38.573332,160.22095 v -0.94401 q 0,-0.0787 0,-0.10727 0.0071,-0.0285 0.0286,-0.05 0.02145,-0.0215 0.06436,-0.0215 0.05006,0 0.06437,0.0215 0.02146,0.0215 0.03576,0.10018 0.107275,0.49347 0.336128,0.75808 0.236005,0.25746 0.657956,0.25746 0.400493,0 0.60074,-0.17879 0.207399,-0.1788 0.207399,-0.47201 0,-0.52209 -0.743774,-0.65796 -0.429102,-0.0858 -0.607893,-0.14309 -0.178793,-0.0573 -0.33613,-0.18595 -0.307522,-0.2503 -0.307522,-0.60789 0,-0.35759 0.271763,-0.61505 0.271765,-0.26461 0.872506,-0.26461 0.400494,0 0.672259,0.20024 0.07867,-0.0644 0.121584,-0.11437 0.09297,-0.0858 0.143039,-0.0858 0.05722,0 0.06437,0.0358 0.01436,0.0358 0.01436,0.13582 v 0.72233 q 0,0.0787 -0.0071,0.10728 0,0.0285 -0.02145,0.05 -0.02146,0.0135 -0.06437,0.0135 -0.07867,0 -0.08582,-0.0644 -0.05722,-0.86535 -0.836746,-0.86535 -0.42195,0 -0.615045,0.16455 -0.185943,0.15728 -0.185943,0.37903 0,0.12163 0.05722,0.21455 0.05722,0.0929 0.12873,0.15018 0.07867,0.05 0.214551,0.10018 0.14304,0.05 0.228855,0.0715 0.08582,0.0135 0.250308,0.05 0.572135,0.10727 0.815292,0.34328 0.300371,0.30037 0.300371,0.67941 0,0.42194 -0.286067,0.70802 -0.286069,0.28606 -0.865354,0.28606 -0.46486,0 -0.786686,-0.30751 -0.04291,0.0429 -0.07867,0.0787 -0.0286,0.0358 -0.04291,0.05 -0.0071,0.0135 -0.01436,0.0215 0,0.007 -0.0071,0.0135 -0.14304,0.14309 -0.178792,0.14309 -0.05722,0 -0.07151,-0.0358 -0.0071,-0.0358 -0.0071,-0.13582 z"
         id="path2892"
         style="stroke-width:0.264583" />
      <path
         d="m 43.729688,160.31393 v -0.22171 h 0.05722 q 0.336129,0 0.414798,-0.0573 0.08582,-0.0573 0.08582,-0.27175 v -2.31 h -0.557832 v -0.21456 h 0.557832 v -0.80098 q 0,-0.56498 0.472011,-0.86535 0.479163,-0.30037 1.058448,-0.30037 0.400495,0 0.657956,0.20739 0.264612,0.2074 0.264612,0.50063 0,0.15728 -0.10013,0.2503 -0.09297,0.0929 -0.228852,0.0929 -0.135877,0 -0.236006,-0.0929 -0.09297,-0.0929 -0.09297,-0.23601 0,-0.14309 0.09297,-0.22884 0.100129,-0.0929 0.250308,-0.10018 -0.264612,-0.22886 -0.622195,-0.22886 -0.37904,0 -0.722321,0.25031 -0.336129,0.24316 -0.336129,0.75808 v 0.79383 h 0.972629 v -0.0135 l 1.036995,-0.0787 v 2.65329 q 0,0.18593 0.09297,0.24315 0.100129,0.05 0.386191,0.05 h 0.07151 v 0.2217 q -0.407646,-0.0215 -0.815292,-0.0215 -0.38619,0 -0.772381,0.0215 v -0.2217 h 0.07151 q 0.307522,0 0.393343,-0.0573 0.08582,-0.0573 0.08582,-0.25746 v -1.67349 q 0,-0.0358 0,-0.10018 0.0071,-0.0644 0.0071,-0.0929 0,-0.27891 -0.07151,-0.36473 -0.06437,-0.0929 -0.328977,-0.0929 h -1.10851 v 2.31 q 0,0.21455 0.07867,0.27175 0.07867,0.0573 0.421948,0.0573 h 0.05722 v 0.22172 q -0.407646,-0.0215 -0.822443,-0.0215 -0.386191,0 -0.772383,0.0215 z"
         id="path2894"
         style="stroke-width:0.264583" />
      <path
         d="m 47.734632,160.31393 v -0.22171 q 0.37904,0 0.464861,-0.0429 0.09297,-0.05 0.09297,-0.27892 v -1.91664 q 0,-0.26461 -0.09297,-0.32898 -0.09297,-0.0715 -0.464861,-0.0715 v -0.22169 l 1.008388,-0.0787 v 0.75091 q 0.336129,-0.75091 1.05845,-0.75091 0.536376,0 0.750925,0.26461 0.157332,0.17879 0.185945,0.37903 0.03576,0.20026 0.03576,0.71518 v 1.36596 q 0.0071,0.15018 0.121584,0.18595 0.114421,0.0286 0.436252,0.0286 v 0.22169 q -0.72947,-0.0215 -0.800988,-0.0215 -0.05722,0 -0.80814,0.0215 v -0.22169 q 0.37904,0 0.464861,-0.0429 0.09297,-0.05 0.09297,-0.27892 v -1.66633 q 0,-0.36474 -0.114422,-0.57929 -0.107275,-0.21455 -0.414799,-0.21455 -0.371887,0 -0.672258,0.31467 -0.293218,0.30753 -0.293218,0.8296 v 1.3159 q 0,0.22886 0.08582,0.27892 0.09297,0.0429 0.472011,0.0429 v 0.22169 q -0.729472,-0.0215 -0.800989,-0.0215 -0.05722,0 -0.808141,0.0215 z"
         id="path2896"
         style="stroke-width:0.264583" />
      <path
         d="m 51.675211,158.74057 q 0,-0.67227 0.429102,-1.15143 0.436252,-0.47916 1.058449,-0.47916 0.629348,0 0.951172,0.40765 0.328979,0.40764 0.328979,0.99408 0,0.10727 -0.0286,0.12873 -0.0286,0.0214 -0.150186,0.0214 h -1.995319 q 0,0.72947 0.214551,1.07276 0.300371,0.47915 0.808139,0.47915 0.07151,0 0.150186,-0.0135 0.08582,-0.0152 0.25746,-0.0715 0.171641,-0.0644 0.321826,-0.22886 0.150186,-0.16455 0.236006,-0.42194 0.02146,-0.10018 0.09297,-0.10018 0.09297,0 0.09297,0.0858 0,0.0644 -0.07151,0.2074 -0.06436,0.13583 -0.193095,0.30752 -0.12873,0.16455 -0.379038,0.29321 -0.25031,0.12163 -0.550681,0.12163 -0.629348,0 -1.101358,-0.47201 -0.472011,-0.47915 -0.472011,-1.18001 z m 0.600742,-0.22886 h 1.694948 q 0,-0.15019 -0.0286,-0.31468 -0.02146,-0.17164 -0.100129,-0.40049 -0.07151,-0.236 -0.25031,-0.37904 -0.17164,-0.15019 -0.429099,-0.15019 -0.114422,0 -0.243159,0.05 -0.121584,0.05 -0.271763,0.17164 -0.150185,0.11437 -0.257461,0.38619 -0.100129,0.26461 -0.114421,0.63651 z"
         id="path2898"
         style="stroke-width:0.264583" />
      <path
         d="m 22.567861,117.73195 v -0.15733 q 0.328977,-0.0144 0.543528,-0.24316 0.221702,-0.236 0.29322,-0.52207 0.07867,-0.28607 0.08582,-0.61504 h 0.178793 v 1.31591 h 1.02269 v 0.2217 h -1.02269 v 1.98816 q 0,0.77239 0.479163,0.77239 0.207398,0 0.343281,-0.2074 0.135876,-0.21455 0.135876,-0.59359 v -0.39334 h 0.178792 v 0.40764 q 0,0.38619 -0.178792,0.67941 -0.178791,0.28607 -0.529224,0.28607 -0.12873,0 -0.25746,-0.0358 -0.128731,-0.0286 -0.29322,-0.11442 -0.164495,-0.0858 -0.271763,-0.29322 -0.100129,-0.21455 -0.100129,-0.52207 v -1.97386 z"
         id="path2900"
         style="stroke-width:0.264583" />
      <path
         d="m 25.435689,120.59262 v -0.2217 q 0.37904,0 0.46486,-0.0429 0.09297,-0.0501 0.09297,-0.27891 v -3.71888 q 0,-0.26461 -0.09297,-0.32898 -0.09297,-0.0715 -0.46486,-0.0715 v -0.2217 l 1.029843,-0.0787 v 2.48879 h 0.0071 q 0.114421,-0.25746 0.371887,-0.47201 0.257461,-0.21455 0.657956,-0.21455 0.536375,0 0.750926,0.26461 0.157331,0.17879 0.185944,0.37904 0.03576,0.20025 0.03576,0.71517 v 1.36597 q 0.0071,0.15019 0.121584,0.18594 0.114422,0.0286 0.436253,0.0286 v 0.22171 q -0.729472,-0.0215 -0.800989,-0.0215 -0.05722,0 -0.808139,0.0215 v -0.22171 q 0.379038,0 0.464858,-0.0429 0.09297,-0.05 0.09297,-0.27891 v -1.66634 q 0,-0.36473 -0.114422,-0.57928 -0.107275,-0.21455 -0.414797,-0.21455 -0.371887,0 -0.672258,0.31467 -0.293218,0.30752 -0.293218,0.8296 v 1.31591 q 0,0.22885 0.08582,0.27891 0.09297,0.0429 0.47201,0.0429 v 0.2217 q -0.729471,-0.0215 -0.800989,-0.0215 -0.05722,0 -0.808139,0.0215 z"
         id="path2902"
         style="stroke-width:0.264583" />
      <path
         d="m 29.412026,120.59262 v -0.2217 q 0.379039,0 0.464859,-0.0429 0.09297,-0.0501 0.09297,-0.27891 v -1.92381 q 0,-0.26461 -0.09297,-0.32897 -0.08582,-0.0644 -0.436252,-0.0644 v -0.2217 l 1.001235,-0.0787 v 2.62467 q 0,0.21455 0.07151,0.26461 0.07867,0.0501 0.4291,0.0501 v 0.2217 q -0.729471,-0.0214 -0.743775,-0.0214 -0.100129,0 -0.786684,0.0214 z m 0.300371,-4.40543 q 0,-0.14304 0.107276,-0.25746 0.114421,-0.12159 0.271763,-0.12159 0.157331,0 0.264612,0.10728 0.114421,0.10727 0.114421,0.27176 0,0.1645 -0.114421,0.27177 -0.107276,0.10727 -0.264612,0.10727 -0.164495,0 -0.271763,-0.11442 -0.107276,-0.11442 -0.107276,-0.26461 z"
         id="path2904"
         style="stroke-width:0.264583" />
      <path
         d="m 31.393045,120.49965 v -0.94402 q 0,-0.0787 0,-0.10728 0.0071,-0.0286 0.0286,-0.05 0.02145,-0.0215 0.06437,-0.0215 0.05006,0 0.06437,0.0215 0.02145,0.0214 0.03576,0.10013 0.107275,0.49346 0.336128,0.75808 0.236006,0.25746 0.657954,0.25746 0.400495,0 0.600742,-0.1788 0.207399,-0.17879 0.207399,-0.47201 0,-0.52207 -0.743776,-0.65795 -0.429099,-0.0858 -0.607893,-0.14304 -0.178791,-0.0572 -0.336128,-0.18594 -0.307522,-0.25031 -0.307522,-0.6079 0,-0.35758 0.271763,-0.61504 0.271765,-0.26461 0.872505,-0.26461 0.400495,0 0.672258,0.20024 0.07867,-0.0644 0.121584,-0.11442 0.09297,-0.0858 0.14304,-0.0858 0.05722,0 0.06436,0.0358 0.01436,0.0358 0.01436,0.13587 v 0.72232 q 0,0.0787 -0.0071,0.10728 0,0.0286 -0.02146,0.05 -0.02146,0.0144 -0.06437,0.0144 -0.07867,0 -0.08582,-0.0644 -0.05722,-0.86536 -0.836748,-0.86536 -0.421948,0 -0.615044,0.1645 -0.185943,0.15733 -0.185943,0.37904 0,0.12158 0.05722,0.21455 0.05722,0.093 0.12873,0.15018 0.07867,0.0501 0.214551,0.10013 0.143039,0.0501 0.228854,0.0715 0.08582,0.0144 0.250308,0.0501 0.572134,0.10727 0.815293,0.34328 0.30037,0.30037 0.30037,0.67941 0,0.42195 -0.286068,0.70802 -0.286067,0.28606 -0.865354,0.28606 -0.464858,0 -0.786684,-0.30752 -0.04291,0.0429 -0.07868,0.0787 -0.0286,0.0358 -0.04291,0.05 -0.0071,0.0144 -0.01436,0.0215 0,0.007 -0.0071,0.0144 -0.143039,0.14304 -0.178793,0.14304 -0.05722,0 -0.07151,-0.0358 -0.0071,-0.0358 -0.0071,-0.13587 z"
         id="path2906"
         style="stroke-width:0.264583" />
      <path
         d="m 36.592313,120.59262 v -0.2217 q 0.379039,0 0.464859,-0.0429 0.09297,-0.0501 0.09297,-0.27891 v -1.92381 q 0,-0.26461 -0.09297,-0.32897 -0.08582,-0.0644 -0.436253,-0.0644 v -0.2217 l 1.001236,-0.0787 v 2.62467 q 0,0.21455 0.07151,0.26461 0.07867,0.0501 0.429099,0.0501 v 0.2217 q -0.72947,-0.0214 -0.743774,-0.0214 -0.100129,0 -0.786685,0.0214 z m 0.300371,-4.40543 q 0,-0.14304 0.107275,-0.25746 0.114422,-0.12159 0.271763,-0.12159 0.157332,0 0.264612,0.10728 0.114422,0.10727 0.114422,0.27176 0,0.1645 -0.114422,0.27177 -0.107275,0.10727 -0.264612,0.10727 -0.164494,0 -0.271763,-0.11442 -0.107275,-0.11442 -0.107275,-0.26461 z"
         id="path2908"
         style="stroke-width:0.264583" />
      <path
         d="m 38.573332,120.49965 v -0.94402 q 0,-0.0787 0,-0.10728 0.0071,-0.0286 0.0286,-0.05 0.02145,-0.0215 0.06436,-0.0215 0.05006,0 0.06437,0.0215 0.02146,0.0214 0.03576,0.10013 0.107275,0.49346 0.336128,0.75808 0.236005,0.25746 0.657956,0.25746 0.400493,0 0.60074,-0.1788 0.207399,-0.17879 0.207399,-0.47201 0,-0.52207 -0.743774,-0.65795 -0.429102,-0.0858 -0.607893,-0.14304 -0.178793,-0.0572 -0.33613,-0.18594 -0.307522,-0.25031 -0.307522,-0.6079 0,-0.35758 0.271763,-0.61504 0.271765,-0.26461 0.872506,-0.26461 0.400494,0 0.672259,0.20024 0.07867,-0.0644 0.121584,-0.11442 0.09297,-0.0858 0.143039,-0.0858 0.05722,0 0.06437,0.0358 0.01436,0.0358 0.01436,0.13587 v 0.72232 q 0,0.0787 -0.0071,0.10728 0,0.0286 -0.02145,0.05 -0.02146,0.0144 -0.06437,0.0144 -0.07867,0 -0.08582,-0.0644 -0.05722,-0.86536 -0.836746,-0.86536 -0.42195,0 -0.615045,0.1645 -0.185943,0.15733 -0.185943,0.37904 0,0.12158 0.05722,0.21455 0.05722,0.093 0.12873,0.15018 0.07867,0.0501 0.214551,0.10013 0.14304,0.0501 0.228855,0.0715 0.08582,0.0144 0.250308,0.0501 0.572135,0.10727 0.815292,0.34328 0.300371,0.30037 0.300371,0.67941 0,0.42195 -0.286067,0.70802 -0.286069,0.28606 -0.865354,0.28606 -0.46486,0 -0.786686,-0.30752 -0.04291,0.0429 -0.07867,0.0787 -0.0286,0.0358 -0.04291,0.05 -0.0071,0.0144 -0.01436,0.0215 0,0.007 -0.0071,0.0144 -0.14304,0.14304 -0.178792,0.14304 -0.05722,0 -0.07151,-0.0358 -0.0071,-0.0358 -0.0071,-0.13587 z"
         id="path2910"
         style="stroke-width:0.264583" />
      <path
         d="m 43.772598,117.73195 v -0.2217 h 0.564983 v -0.82244 q 0,-0.52923 0.343281,-0.8296 0.343281,-0.30752 0.76523,-0.30752 0.278915,0 0.457707,0.15018 0.185945,0.15019 0.185945,0.35043 0,0.13588 -0.08582,0.22886 -0.07867,0.0858 -0.228854,0.0858 -0.14304,0 -0.228853,-0.0858 -0.07867,-0.093 -0.07867,-0.2217 0,-0.22886 0.21455,-0.30037 -0.107275,-0.0501 -0.236005,-0.0501 -0.257461,0 -0.457708,0.26461 -0.200247,0.26462 -0.200247,0.70802 v 0.8296 h 0.836748 v 0.2217 h -0.815293 v 2.30284 q 0,0.2074 0.08582,0.27176 0.08582,0.0644 0.457707,0.0644 h 0.150186 v 0.2217 q -0.286067,-0.0215 -0.908264,-0.0215 -0.08582,0 -0.221702,0.007 -0.135876,0 -0.314675,0.007 -0.178791,0.007 -0.278916,0.007 v -0.2217 q 0.37904,0 0.464861,-0.0429 0.09297,-0.0501 0.09297,-0.27892 v -2.31714 z"
         id="path2912"
         style="stroke-width:0.264583" />
      <path
         d="m 46.15411,120.59262 v -0.2217 q 0.379039,0 0.464859,-0.0429 0.09297,-0.0501 0.09297,-0.27891 v -1.92381 q 0,-0.26461 -0.09297,-0.32897 -0.08582,-0.0644 -0.436252,-0.0644 v -0.2217 l 1.001235,-0.0787 v 2.62467 q 0,0.21455 0.07151,0.26461 0.07867,0.0501 0.429101,0.0501 v 0.2217 q -0.729472,-0.0214 -0.743774,-0.0214 -0.100129,0 -0.786685,0.0214 z m 0.30037,-4.40543 q 0,-0.14304 0.107275,-0.25746 0.114421,-0.12159 0.271765,-0.12159 0.157331,0 0.264612,0.10728 0.114421,0.10727 0.114421,0.27176 0,0.1645 -0.114421,0.27177 -0.107276,0.10727 -0.264612,0.10727 -0.164495,0 -0.271765,-0.11442 -0.107275,-0.11442 -0.107275,-0.26461 z"
         id="path2914"
         style="stroke-width:0.264583" />
      <path
         d="m 48.127976,120.59262 v -0.2217 q 0.37904,0 0.464861,-0.0429 0.09297,-0.0501 0.09297,-0.27891 v -1.91666 q 0,-0.26461 -0.09297,-0.32897 -0.09297,-0.0715 -0.464861,-0.0715 v -0.22171 l 1.008388,-0.0787 v 0.75093 q 0.336129,-0.75093 1.05845,-0.75093 0.536374,0 0.750925,0.26461 0.157332,0.17879 0.185945,0.37904 0.03576,0.20025 0.03576,0.71517 v 1.36597 q 0.0071,0.15019 0.121584,0.18594 0.114421,0.0286 0.436252,0.0286 v 0.2217 q -0.72947,-0.0215 -0.800988,-0.0215 -0.05722,0 -0.80814,0.0215 v -0.2217 q 0.37904,0 0.464859,-0.0429 0.09297,-0.0501 0.09297,-0.27892 v -1.66634 q 0,-0.36473 -0.114421,-0.57928 -0.107276,-0.21455 -0.414798,-0.21455 -0.371887,0 -0.672258,0.31467 -0.293218,0.30752 -0.293218,0.8296 v 1.31591 q 0,0.22885 0.08582,0.27891 0.09297,0.0429 0.472011,0.0429 v 0.2217 q -0.729472,-0.0215 -0.800989,-0.0215 -0.05722,0 -0.808141,0.0215 z"
         id="path2916"
         style="stroke-width:0.264583" />
      <path
         d="m 52.068555,119.01925 q 0,-0.67226 0.429101,-1.15142 0.436253,-0.47916 1.058448,-0.47916 0.629348,0 0.951174,0.40765 0.328977,0.40764 0.328977,0.99408 0,0.10728 -0.0286,0.12873 -0.0286,0.0215 -0.150185,0.0215 h -1.99532 q 0,0.72947 0.214551,1.07275 0.300371,0.47916 0.80814,0.47916 0.07151,0 0.150185,-0.0144 0.08582,-0.0144 0.257461,-0.0715 0.17164,-0.0644 0.321826,-0.22885 0.150185,-0.1645 0.236005,-0.42195 0.02145,-0.10013 0.09297,-0.10013 0.09297,0 0.09297,0.0858 0,0.0644 -0.07151,0.2074 -0.06437,0.13587 -0.193096,0.30752 -0.12873,0.16449 -0.379038,0.29322 -0.25031,0.12158 -0.550681,0.12158 -0.629348,0 -1.101357,-0.47201 -0.472012,-0.47916 -0.472012,-1.18002 z m 0.60074,-0.22885 h 1.69495 q 0,-0.15019 -0.0286,-0.31467 -0.02146,-0.17165 -0.100129,-0.4005 -0.07151,-0.236 -0.25031,-0.37904 -0.17164,-0.15018 -0.429101,-0.15018 -0.114421,0 -0.243157,0.05 -0.121584,0.0501 -0.271763,0.17164 -0.150185,0.11442 -0.257461,0.38619 -0.100129,0.26462 -0.114421,0.63651 z"
         id="path2918"
         style="stroke-width:0.264583" />
      <path
         d="m 22.567861,165.96575 v -0.15728 q 0.328977,-0.0135 0.543528,-0.24315 0.221702,-0.236 0.29322,-0.52208 0.07867,-0.28607 0.08582,-0.61504 h 0.178793 v 1.31591 h 1.02269 v 0.22169 h -1.02269 v 1.98818 q 0,0.77238 0.479163,0.77238 0.207398,0 0.343281,-0.2074 0.135876,-0.21455 0.135876,-0.5936 v -0.39334 h 0.178792 v 0.40765 q 0,0.38619 -0.178792,0.67942 -0.178791,0.28606 -0.529224,0.28606 -0.12873,0 -0.25746,-0.0358 -0.128731,-0.0285 -0.29322,-0.11437 -0.164495,-0.0858 -0.271763,-0.29322 -0.100129,-0.21455 -0.100129,-0.52207 v -1.97387 z"
         id="path2920"
         style="stroke-width:0.264583" />
      <path
         d="m 25.435689,168.82642 v -0.22169 q 0.37904,0 0.46486,-0.0429 0.09297,-0.05 0.09297,-0.27892 v -3.71887 q 0,-0.26463 -0.09297,-0.32899 -0.09297,-0.0715 -0.46486,-0.0715 v -0.2217 l 1.029843,-0.0787 v 2.48878 h 0.0071 q 0.114421,-0.25746 0.371887,-0.47201 0.257461,-0.21455 0.657956,-0.21455 0.536375,0 0.750926,0.26461 0.157331,0.1788 0.185944,0.37904 0.03576,0.20025 0.03576,0.71517 v 1.36598 q 0.0071,0.15018 0.121584,0.18595 0.114422,0.0285 0.436253,0.0285 v 0.22169 q -0.729472,-0.0214 -0.800989,-0.0214 -0.05722,0 -0.808139,0.0214 v -0.22169 q 0.379038,0 0.464858,-0.0429 0.09297,-0.05 0.09297,-0.2789 v -1.66632 q 0,-0.36473 -0.114422,-0.57928 -0.107275,-0.21456 -0.414797,-0.21456 -0.371887,0 -0.672258,0.31468 -0.293218,0.30752 -0.293218,0.82959 v 1.31592 q 0,0.22884 0.08582,0.2789 0.09297,0.0429 0.47201,0.0429 v 0.2217 q -0.729471,-0.0215 -0.800989,-0.0215 -0.05722,0 -0.808139,0.0215 z"
         id="path2922"
         style="stroke-width:0.264583" />
      <path
         d="m 29.412026,168.82642 v -0.22169 q 0.379039,0 0.464859,-0.0429 0.09297,-0.05 0.09297,-0.27892 v -1.92381 q 0,-0.26461 -0.09297,-0.32897 -0.08582,-0.0644 -0.436252,-0.0644 v -0.22169 l 1.001235,-0.0787 V 168.29 q 0,0.21455 0.07151,0.2646 0.07867,0.05 0.4291,0.05 v 0.2217 q -0.729471,-0.0215 -0.743775,-0.0215 -0.100129,0 -0.786684,0.0215 z m 0.300371,-4.40543 q 0,-0.14309 0.107276,-0.25746 0.114421,-0.12164 0.271763,-0.12164 0.157331,0 0.264612,0.10728 0.114421,0.10727 0.114421,0.27177 0,0.16454 -0.114421,0.27175 -0.107276,0.10728 -0.264612,0.10728 -0.164495,0 -0.271763,-0.11437 -0.107276,-0.11437 -0.107276,-0.26461 z"
         id="path2924"
         style="stroke-width:0.264583" />
      <path
         d="m 31.393045,168.73346 v -0.94403 q 0,-0.0787 0,-0.10727 0.0071,-0.0286 0.0286,-0.05 0.02145,-0.0214 0.06437,-0.0214 0.05006,0 0.06437,0.0214 0.02145,0.0215 0.03576,0.10018 0.107275,0.49347 0.336128,0.75808 0.236006,0.25746 0.657954,0.25746 0.400495,0 0.600742,-0.17879 0.207399,-0.17879 0.207399,-0.47201 0,-0.52207 -0.743776,-0.65796 -0.429099,-0.0858 -0.607893,-0.14309 -0.178791,-0.0573 -0.336128,-0.18593 -0.307522,-0.25032 -0.307522,-0.60791 0,-0.35757 0.271763,-0.61503 0.271765,-0.26463 0.872505,-0.26463 0.400495,0 0.672258,0.20026 0.07867,-0.0644 0.121584,-0.11437 0.09297,-0.0858 0.14304,-0.0858 0.05722,0 0.06436,0.0358 0.01436,0.0358 0.01436,0.13582 v 0.72231 q 0,0.0787 -0.0071,0.10728 0,0.0285 -0.02146,0.05 -0.02146,0.0135 -0.06437,0.0135 -0.07867,0 -0.08582,-0.0644 -0.05722,-0.86535 -0.836748,-0.86535 -0.421948,0 -0.615044,0.16455 -0.185943,0.15728 -0.185943,0.37904 0,0.12164 0.05722,0.21455 0.05722,0.0929 0.12873,0.15019 0.07867,0.05 0.214551,0.10018 0.143039,0.05 0.228854,0.0715 0.08582,0.0135 0.250308,0.05 0.572134,0.10727 0.815293,0.34328 0.30037,0.30037 0.30037,0.6794 0,0.42195 -0.286068,0.70801 -0.286067,0.28606 -0.865354,0.28606 -0.464858,0 -0.786684,-0.30751 -0.04291,0.0429 -0.07868,0.0787 -0.0286,0.0358 -0.04291,0.05 -0.0071,0.0135 -0.01436,0.0214 0,0.007 -0.0071,0.0135 -0.143039,0.14309 -0.178793,0.14309 -0.05722,0 -0.07151,-0.0358 -0.0071,-0.0358 -0.0071,-0.13582 z"
         id="path2926"
         style="stroke-width:0.264583" />
      <path
         d="m 36.592313,168.82642 v -0.22169 q 0.379039,0 0.464859,-0.0429 0.09297,-0.05 0.09297,-0.27892 v -1.92381 q 0,-0.26461 -0.09297,-0.32897 -0.08582,-0.0644 -0.436253,-0.0644 v -0.22169 l 1.001236,-0.0787 V 168.29 q 0,0.21455 0.07151,0.2646 0.07867,0.05 0.429099,0.05 v 0.2217 q -0.72947,-0.0215 -0.743774,-0.0215 -0.100129,0 -0.786685,0.0215 z m 0.300371,-4.40543 q 0,-0.14309 0.107275,-0.25746 0.114422,-0.12164 0.271763,-0.12164 0.157332,0 0.264612,0.10728 0.114422,0.10727 0.114422,0.27177 0,0.16454 -0.114422,0.27175 -0.107275,0.10728 -0.264612,0.10728 -0.164494,0 -0.271763,-0.11437 -0.107275,-0.11437 -0.107275,-0.26461 z"
         id="path2928"
         style="stroke-width:0.264583" />
      <path
         d="m 38.573332,168.73346 v -0.94403 q 0,-0.0787 0,-0.10727 0.0071,-0.0286 0.0286,-0.05 0.02145,-0.0214 0.06436,-0.0214 0.05006,0 0.06437,0.0214 0.02146,0.0215 0.03576,0.10018 0.107275,0.49347 0.336128,0.75808 0.236005,0.25746 0.657956,0.25746 0.400493,0 0.60074,-0.17879 0.207399,-0.17879 0.207399,-0.47201 0,-0.52207 -0.743774,-0.65796 -0.429102,-0.0858 -0.607893,-0.14309 -0.178793,-0.0573 -0.33613,-0.18593 -0.307522,-0.25032 -0.307522,-0.60791 0,-0.35757 0.271763,-0.61503 0.271765,-0.26463 0.872506,-0.26463 0.400494,0 0.672259,0.20026 0.07867,-0.0644 0.121584,-0.11437 0.09297,-0.0858 0.143039,-0.0858 0.05722,0 0.06437,0.0358 0.01436,0.0358 0.01436,0.13582 v 0.72231 q 0,0.0787 -0.0071,0.10728 0,0.0285 -0.02145,0.05 -0.02146,0.0135 -0.06437,0.0135 -0.07867,0 -0.08582,-0.0644 -0.05722,-0.86535 -0.836746,-0.86535 -0.42195,0 -0.615045,0.16455 -0.185943,0.15728 -0.185943,0.37904 0,0.12164 0.05722,0.21455 0.05722,0.0929 0.12873,0.15019 0.07867,0.05 0.214551,0.10018 0.14304,0.05 0.228855,0.0715 0.08582,0.0135 0.250308,0.05 0.572135,0.10727 0.815292,0.34328 0.300371,0.30037 0.300371,0.6794 0,0.42195 -0.286067,0.70801 -0.286069,0.28606 -0.865354,0.28606 -0.46486,0 -0.786686,-0.30751 -0.04291,0.0429 -0.07867,0.0787 -0.0286,0.0358 -0.04291,0.05 -0.0071,0.0135 -0.01436,0.0214 0,0.007 -0.0071,0.0135 -0.14304,0.14309 -0.178792,0.14309 -0.05722,0 -0.07151,-0.0358 -0.0071,-0.0358 -0.0071,-0.13582 z"
         id="path2930"
         style="stroke-width:0.264583" />
      <path
         d="m 48.476952,168.82642 v -0.22169 q 0.37904,0 0.46486,-0.0429 0.09297,-0.05 0.09297,-0.27892 v -1.92381 q 0,-0.26461 -0.09297,-0.32897 -0.08582,-0.0644 -0.436252,-0.0644 v -0.22169 l 1.001235,-0.0787 V 168.29 q 0,0.21455 0.07151,0.2646 0.07867,0.05 0.429101,0.05 v 0.2217 q -0.729472,-0.0215 -0.743776,-0.0215 -0.10013,0 -0.786685,0.0215 z m 0.300371,-4.40543 q 0,-0.14309 0.107275,-0.25746 0.114422,-0.12164 0.271765,-0.12164 0.157332,0 0.264612,0.10728 0.114421,0.10727 0.114421,0.27177 0,0.16454 -0.114421,0.27175 -0.107275,0.10728 -0.264612,0.10728 -0.164494,0 -0.271765,-0.11437 -0.107275,-0.11437 -0.107275,-0.26461 z"
         id="path2934"
         style="stroke-width:0.264583" />
      <path
         d="m 50.45082,168.82642 v -0.22169 q 0.379038,0 0.464858,-0.0429 0.09297,-0.05 0.09297,-0.27892 v -1.91665 q 0,-0.26462 -0.09297,-0.32898 -0.09297,-0.0715 -0.464858,-0.0715 v -0.22169 l 1.008386,-0.0787 v 0.75093 q 0.33613,-0.75093 1.058449,-0.75093 0.536377,0 0.750928,0.26461 0.157331,0.1788 0.185942,0.37904 0.03576,0.20025 0.03576,0.71517 v 1.36598 q 0.0071,0.15018 0.121585,0.18593 0.114421,0.0285 0.436252,0.0285 v 0.22171 q -0.729472,-0.0214 -0.800988,-0.0214 -0.05722,0 -0.80814,0.0214 v -0.22171 q 0.379038,0 0.464859,-0.0429 0.09297,-0.05 0.09297,-0.27892 v -1.66628 q 0,-0.36473 -0.114421,-0.57928 -0.107276,-0.21456 -0.414798,-0.21456 -0.371887,0 -0.672258,0.31468 -0.29322,0.30752 -0.29322,0.82959 v 1.3159 q 0,0.22886 0.08582,0.27892 0.09297,0.0429 0.472011,0.0429 v 0.22171 q -0.72947,-0.0215 -0.800988,-0.0215 -0.05722,0 -0.80814,0.0215 z"
         id="path2936"
         style="stroke-width:0.264583" />
      <path
         d="m 54.391397,167.25306 q 0,-0.67226 0.429101,-1.15143 0.436253,-0.47916 1.05845,-0.47916 0.629347,0 0.951173,0.40765 0.328978,0.40765 0.328978,0.99408 0,0.10727 -0.0286,0.12873 -0.0286,0.0215 -0.150185,0.0215 h -1.995319 q 0,0.72948 0.21455,1.07276 0.300371,0.47915 0.80814,0.47915 0.07151,0 0.150185,-0.0135 0.08582,-0.0135 0.257461,-0.0715 0.171641,-0.0644 0.321826,-0.22884 0.150186,-0.16455 0.236004,-0.42196 0.02145,-0.10018 0.09297,-0.10018 0.09297,0 0.09297,0.0858 0,0.0644 -0.07151,0.20741 -0.06437,0.13582 -0.193096,0.30751 -0.12873,0.16455 -0.37904,0.29323 -0.250308,0.12163 -0.550679,0.12163 -0.629348,0 -1.101359,-0.47201 -0.472012,-0.47916 -0.472012,-1.18003 z m 0.600742,-0.22886 h 1.694948 q 0,-0.15019 -0.0286,-0.31467 -0.02146,-0.17164 -0.100129,-0.4005 -0.07151,-0.236 -0.250308,-0.37904 -0.171641,-0.15019 -0.429101,-0.15019 -0.114422,0 -0.243157,0.05 -0.121585,0.05 -0.271765,0.17164 -0.150185,0.11437 -0.257461,0.38619 -0.100129,0.26463 -0.114421,0.63651 z"
         id="path2938"
         style="stroke-width:0.264583" />
      <path
         d="m 22.567861,126.25722 v -0.15733 q 0.328977,-0.0144 0.543528,-0.24316 0.221702,-0.236 0.29322,-0.52207 0.07867,-0.28607 0.08582,-0.61504 h 0.178793 v 1.31591 h 1.02269 v 0.2217 h -1.02269 v 1.98816 q 0,0.77239 0.479163,0.77239 0.207398,0 0.343281,-0.2074 0.135876,-0.21455 0.135876,-0.59359 v -0.39334 h 0.178792 v 0.40764 q 0,0.38619 -0.178792,0.67941 -0.178791,0.28607 -0.529224,0.28607 -0.12873,0 -0.25746,-0.0358 -0.128731,-0.0286 -0.29322,-0.11442 -0.164495,-0.0858 -0.271763,-0.29321 -0.100129,-0.21456 -0.100129,-0.52208 v -1.97386 z"
         id="path2940"
         style="stroke-width:0.264583" />
      <path
         d="m 25.435689,129.11789 v -0.2217 q 0.37904,0 0.46486,-0.0429 0.09297,-0.0501 0.09297,-0.27891 v -3.71888 q 0,-0.26461 -0.09297,-0.32898 -0.09297,-0.0715 -0.46486,-0.0715 v -0.2217 l 1.029843,-0.0787 v 2.48878 h 0.0071 q 0.114421,-0.25746 0.371887,-0.47201 0.257461,-0.21455 0.657956,-0.21455 0.536375,0 0.750926,0.26461 0.157331,0.17879 0.185944,0.37904 0.03576,0.20025 0.03576,0.71517 v 1.36597 q 0.0071,0.15019 0.121584,0.18595 0.114422,0.0286 0.436253,0.0286 v 0.2217 q -0.729472,-0.0215 -0.800989,-0.0215 -0.05722,0 -0.808139,0.0215 v -0.2217 q 0.379038,0 0.464858,-0.0429 0.09297,-0.0501 0.09297,-0.27892 v -1.66634 q 0,-0.36473 -0.114422,-0.57928 -0.107275,-0.21455 -0.414797,-0.21455 -0.371887,0 -0.672258,0.31467 -0.293218,0.30752 -0.293218,0.8296 v 1.31591 q 0,0.22885 0.08582,0.27891 0.09297,0.0429 0.47201,0.0429 v 0.2217 q -0.729471,-0.0214 -0.800989,-0.0214 -0.05722,0 -0.808139,0.0214 z"
         id="path2942"
         style="stroke-width:0.264583" />
      <path
         d="m 29.412026,129.11789 v -0.2217 q 0.379039,0 0.464859,-0.0429 0.09297,-0.0501 0.09297,-0.27891 v -1.92381 q 0,-0.26461 -0.09297,-0.32897 -0.08582,-0.0644 -0.436252,-0.0644 v -0.2217 l 1.001235,-0.0787 v 2.62467 q 0,0.21455 0.07151,0.26461 0.07867,0.0501 0.4291,0.0501 v 0.2217 q -0.729471,-0.0215 -0.743775,-0.0215 -0.100129,0 -0.786684,0.0215 z m 0.300371,-4.40543 q 0,-0.14304 0.107276,-0.25746 0.114421,-0.12159 0.271763,-0.12159 0.157331,0 0.264612,0.10728 0.114421,0.10727 0.114421,0.27176 0,0.16449 -0.114421,0.27177 -0.107276,0.10727 -0.264612,0.10727 -0.164495,0 -0.271763,-0.11442 -0.107276,-0.11442 -0.107276,-0.26461 z"
         id="path2944"
         style="stroke-width:0.264583" />
      <path
         d="m 31.393045,129.02492 v -0.94402 q 0,-0.0787 0,-0.10727 0.0071,-0.0286 0.0286,-0.0501 0.02145,-0.0215 0.06437,-0.0215 0.05006,0 0.06437,0.0215 0.02145,0.0215 0.03576,0.10013 0.107275,0.49346 0.336128,0.75808 0.236006,0.25746 0.657954,0.25746 0.400495,0 0.600742,-0.17879 0.207399,-0.1788 0.207399,-0.47202 0,-0.52207 -0.743776,-0.65795 -0.429099,-0.0858 -0.607893,-0.14304 -0.178791,-0.0572 -0.336128,-0.18595 -0.307522,-0.2503 -0.307522,-0.60789 0,-0.35758 0.271763,-0.61504 0.271765,-0.26461 0.872505,-0.26461 0.400495,0 0.672258,0.20024 0.07867,-0.0644 0.121584,-0.11442 0.09297,-0.0858 0.14304,-0.0858 0.05722,0 0.06436,0.0358 0.01436,0.0358 0.01436,0.13588 v 0.72232 q 0,0.0787 -0.0071,0.10728 0,0.0286 -0.02146,0.05 -0.02146,0.0144 -0.06437,0.0144 -0.07867,0 -0.08582,-0.0644 -0.05722,-0.86536 -0.836748,-0.86536 -0.421948,0 -0.615044,0.1645 -0.185943,0.15733 -0.185943,0.37904 0,0.12158 0.05722,0.21455 0.05722,0.093 0.12873,0.15018 0.07867,0.0501 0.214551,0.10013 0.143039,0.0501 0.228854,0.0715 0.08582,0.0144 0.250308,0.0501 0.572134,0.10727 0.815293,0.34328 0.30037,0.30037 0.30037,0.67941 0,0.42195 -0.286068,0.70802 -0.286067,0.28606 -0.865354,0.28606 -0.464858,0 -0.786684,-0.30752 -0.04291,0.0429 -0.07868,0.0787 -0.0286,0.0358 -0.04291,0.05 -0.0071,0.0144 -0.01436,0.0215 0,0.007 -0.0071,0.0144 -0.143039,0.14304 -0.178793,0.14304 -0.05722,0 -0.07151,-0.0358 -0.0071,-0.0358 -0.0071,-0.13588 z"
         id="path2946"
         style="stroke-width:0.264583" />
      <path
         d="m 36.592313,129.11789 v -0.2217 q 0.379039,0 0.464859,-0.0429 0.09297,-0.0501 0.09297,-0.27891 v -1.92381 q 0,-0.26461 -0.09297,-0.32897 -0.08582,-0.0644 -0.436253,-0.0644 v -0.2217 l 1.001236,-0.0787 v 2.62467 q 0,0.21455 0.07151,0.26461 0.07867,0.0501 0.429099,0.0501 v 0.2217 q -0.72947,-0.0215 -0.743774,-0.0215 -0.100129,0 -0.786685,0.0215 z m 0.300371,-4.40543 q 0,-0.14304 0.107275,-0.25746 0.114422,-0.12159 0.271763,-0.12159 0.157332,0 0.264612,0.10728 0.114422,0.10727 0.114422,0.27176 0,0.16449 -0.114422,0.27177 -0.107275,0.10727 -0.264612,0.10727 -0.164494,0 -0.271763,-0.11442 -0.107275,-0.11442 -0.107275,-0.26461 z"
         id="path2948"
         style="stroke-width:0.264583" />
      <path
         d="m 38.573332,129.02492 v -0.94402 q 0,-0.0787 0,-0.10727 0.0071,-0.0286 0.0286,-0.0501 0.02145,-0.0215 0.06436,-0.0215 0.05006,0 0.06437,0.0215 0.02146,0.0215 0.03576,0.10013 0.107275,0.49346 0.336128,0.75808 0.236005,0.25746 0.657956,0.25746 0.400493,0 0.60074,-0.17879 0.207399,-0.1788 0.207399,-0.47202 0,-0.52207 -0.743774,-0.65795 -0.429102,-0.0858 -0.607893,-0.14304 -0.178793,-0.0572 -0.33613,-0.18595 -0.307522,-0.2503 -0.307522,-0.60789 0,-0.35758 0.271763,-0.61504 0.271765,-0.26461 0.872506,-0.26461 0.400494,0 0.672259,0.20024 0.07867,-0.0644 0.121584,-0.11442 0.09297,-0.0858 0.143039,-0.0858 0.05722,0 0.06437,0.0358 0.01436,0.0358 0.01436,0.13588 v 0.72232 q 0,0.0787 -0.0071,0.10728 0,0.0286 -0.02145,0.05 -0.02146,0.0144 -0.06437,0.0144 -0.07867,0 -0.08582,-0.0644 -0.05722,-0.86536 -0.836746,-0.86536 -0.42195,0 -0.615045,0.1645 -0.185943,0.15733 -0.185943,0.37904 0,0.12158 0.05722,0.21455 0.05722,0.093 0.12873,0.15018 0.07867,0.0501 0.214551,0.10013 0.14304,0.0501 0.228855,0.0715 0.08582,0.0144 0.250308,0.0501 0.572135,0.10727 0.815292,0.34328 0.300371,0.30037 0.300371,0.67941 0,0.42195 -0.286067,0.70802 -0.286069,0.28606 -0.865354,0.28606 -0.46486,0 -0.786686,-0.30752 -0.04291,0.0429 -0.07867,0.0787 -0.0286,0.0358 -0.04291,0.05 -0.0071,0.0144 -0.01436,0.0215 0,0.007 -0.0071,0.0144 -0.14304,0.14304 -0.178792,0.14304 -0.05722,0 -0.07151,-0.0358 -0.0071,-0.0358 -0.0071,-0.13588 z"
         id="path2950"
         style="stroke-width:0.264583" />
      <path
         d="m 43.765447,129.11789 v -0.2217 q 0.379039,0 0.464859,-0.0429 0.09297,-0.0501 0.09297,-0.27891 v -1.91665 q 0,-0.26462 -0.09297,-0.32898 -0.09297,-0.0715 -0.464859,-0.0715 v -0.22171 l 1.008387,-0.0787 v 0.75092 q 0.336129,-0.75092 1.058449,-0.75092 0.536376,0 0.750927,0.26461 0.157332,0.17879 0.185943,0.37904 0.03576,0.20025 0.03576,0.71517 v 1.36597 q 0.0071,0.15018 0.121584,0.18594 0.114422,0.0286 0.436253,0.0286 v 0.22171 q -0.729473,-0.0215 -0.800989,-0.0215 -0.05722,0 -0.808141,0.0215 v -0.22171 q 0.37904,0 0.46486,-0.0429 0.09297,-0.05 0.09297,-0.27891 v -1.66634 q 0,-0.36473 -0.114421,-0.57928 -0.107275,-0.21455 -0.414797,-0.21455 -0.371888,0 -0.672258,0.31467 -0.29322,0.30752 -0.29322,0.8296 v 1.31591 q 0,0.22885 0.08582,0.27891 0.09297,0.0429 0.472011,0.0429 v 0.2217 q -0.729472,-0.0214 -0.800988,-0.0214 -0.05722,0 -0.80814,0.0214 z"
         id="path2952"
         style="stroke-width:0.264583" />
      <path
         d="m 52.67755,126.25722 v -0.15733 q 0.328977,-0.0144 0.543527,-0.24316 0.221704,-0.236 0.29322,-0.52207 0.07867,-0.28607 0.08582,-0.61504 h 0.178792 v 1.31591 h 1.02269 v 0.2217 h -1.02269 v 1.98816 q 0,0.77239 0.479163,0.77239 0.207399,0 0.343281,-0.2074 0.135876,-0.21455 0.135876,-0.59359 v -0.39334 h 0.178793 v 0.40764 q 0,0.38619 -0.178793,0.67941 -0.178792,0.28607 -0.529224,0.28607 -0.12873,0 -0.257461,-0.0358 -0.12873,-0.0286 -0.293218,-0.11442 -0.164494,-0.0858 -0.271764,-0.29321 -0.10013,-0.21456 -0.10013,-0.52208 v -1.97386 z"
         id="path2956"
         style="stroke-width:0.264583" />
      <path
         d="m 22.732351,137.66582 q 0,-0.60789 0.715166,-0.92972 0.429101,-0.2074 1.31591,-0.25745 v -0.26463 q 0,-0.44339 -0.236006,-0.67939 -0.228853,-0.23601 -0.522072,-0.23601 -0.522073,0 -0.772381,0.32897 0.214549,0.007 0.286067,0.11437 0.07867,0.10728 0.07867,0.21456 0,0.14309 -0.09297,0.236 -0.08582,0.0929 -0.236006,0.0929 -0.143039,0 -0.236005,-0.0858 -0.09297,-0.0929 -0.09297,-0.25032 0,-0.35042 0.314675,-0.57928 0.314673,-0.22886 0.76523,-0.22886 0.586437,0 0.97978,0.39335 0.121584,0.12164 0.178791,0.27892 0.06436,0.15728 0.07151,0.2646 0.0071,0.10018 0.0071,0.30037 v 1.43035 q 0,0.0429 0.01436,0.11437 0.01436,0.0644 0.07867,0.15728 0.06436,0.0858 0.17164,0.0858 0.257461,0 0.257461,-0.4577 v -0.4005 h 0.178792 v 0.4005 q 0,0.37905 -0.200247,0.52923 -0.200247,0.15019 -0.386191,0.15019 -0.236006,0 -0.386191,-0.17164 -0.150186,-0.17881 -0.171641,-0.41481 -0.107275,0.27177 -0.357583,0.45056 -0.243157,0.17164 -0.579287,0.17164 -0.257461,0 -0.500617,-0.0644 -0.243157,-0.0644 -0.443404,-0.24315 -0.200247,-0.17879 -0.200247,-0.45056 z m 0.550678,-0.007 q 0,0.2646 0.185943,0.43624 0.193096,0.17165 0.457709,0.17165 0.300369,0 0.564983,-0.22886 0.271763,-0.23601 0.271763,-0.69371 v -0.71517 q -0.793836,0.0286 -1.137117,0.34329 -0.343281,0.31466 -0.343281,0.68656 z"
         id="path2958"
         style="fill:#cccccc;stroke-width:0.264583" />
      <path
         d="m 26.208067,133.68234 v -0.2217 l 1.029842,-0.0787 v 2.26707 q 0.414797,-0.46486 0.97978,-0.46486 0.615046,0 1.065602,0.47201 0.450555,0.47201 0.450555,1.14428 0,0.6794 -0.47201,1.15141 -0.472011,0.47201 -1.122814,0.47201 -0.593591,0 -0.93687,-0.52207 -0.25031,0.43625 -0.257461,0.44341 h -0.178792 v -4.2624 q 0,-0.26461 -0.09297,-0.32898 -0.09297,-0.0715 -0.464859,-0.0715 z m 1.051297,3.8476 q 0,0.15018 0.100129,0.30037 0.286067,0.43625 0.750927,0.43625 0.500618,0 0.80814,-0.45771 0.221702,-0.34328 0.221702,-1.01555 0,-0.6651 -0.2074,-0.99407 -0.286067,-0.4577 -0.750925,-0.4577 -0.522073,0 -0.843899,0.4577 -0.07867,0.11437 -0.07867,0.25746 z"
         id="path2960"
         style="fill:#cccccc;stroke-width:0.264583" />
      <path
         d="m 30.870964,137.95188 q -0.450555,-0.47201 -0.450555,-1.15141 0,-0.67941 0.443404,-1.16573 0.450556,-0.49347 1.10851,-0.49347 0.436253,0 0.76523,0.20741 0.328979,0.2074 0.328979,0.55782 0,0.15729 -0.09297,0.25032 -0.09297,0.0858 -0.236005,0.0858 -0.150186,0 -0.243157,-0.0929 -0.08582,-0.0929 -0.08582,-0.236 0,-0.0644 0.02146,-0.12164 0.02145,-0.0644 0.100129,-0.12873 0.07867,-0.0715 0.214551,-0.0787 -0.257461,-0.26461 -0.76523,-0.26461 -0.364736,0 -0.665107,0.34328 -0.300371,0.34328 -0.300371,1.12281 0,0.40764 0.100129,0.70801 0.10013,0.30037 0.264612,0.45771 0.164495,0.15018 0.321826,0.22171 0.164495,0.0715 0.321826,0.0715 0.700865,0 0.93687,-0.75093 0.02145,-0.0715 0.09297,-0.0715 0.09297,0 0.09297,0.0715 0,0.0358 -0.0286,0.12873 -0.0286,0.0858 -0.114422,0.22886 -0.08582,0.14309 -0.21455,0.27176 -0.121585,0.12163 -0.343281,0.21455 -0.214551,0.0858 -0.486314,0.0858 -0.629348,0 -1.087057,-0.47201 z"
         id="path2962"
         style="fill:#cccccc;stroke-width:0.264583" />
      <path
         d="m 33.595757,136.80761 q 0,-0.67941 0.472012,-1.15142 0.479162,-0.47201 1.122814,-0.47201 0.543528,0 0.901111,0.44341 v -1.54476 q 0,-0.26461 -0.09297,-0.32897 -0.09297,-0.0715 -0.464859,-0.0715 v -0.2217 l 1.029841,-0.0787 v 4.34106 q 0,0.26461 0.09297,0.33612 0.09297,0.0644 0.46486,0.0644 v 0.22171 l -1.051298,0.0787 v -0.47202 q -0.371887,0.47202 -0.958325,0.47202 -0.615044,0 -1.065601,-0.47202 -0.450556,-0.47201 -0.450556,-1.14426 z m 0.593591,0.007 q 0,0.66511 0.207398,0.9941 0.286067,0.4577 0.750927,0.4577 0.529224,0 0.843898,-0.50061 0.07867,-0.12164 0.07867,-0.26463 v -1.46608 q 0,-0.14309 -0.07867,-0.26461 -0.293219,-0.4291 -0.772382,-0.4291 -0.500617,0 -0.808139,0.4577 -0.221702,0.34328 -0.221702,1.01553 z"
         id="path2964"
         style="fill:#cccccc;stroke-width:0.264583" />
      <path
         d="m 37.522034,136.77185 q 0,-0.67225 0.429101,-1.1514 0.436252,-0.47918 1.058449,-0.47918 0.629348,0 0.951173,0.40765 0.328978,0.40764 0.328978,0.99409 0,0.10727 -0.0286,0.12873 -0.0286,0.0214 -0.150185,0.0214 h -1.99532 q 0,0.72947 0.21455,1.07275 0.300371,0.47916 0.80814,0.47916 0.07151,0 0.150185,-0.0135 0.08582,-0.0135 0.257461,-0.0715 0.171641,-0.0644 0.321826,-0.22886 0.150185,-0.16455 0.236006,-0.42194 0.02146,-0.10018 0.09297,-0.10018 0.09297,0 0.09297,0.0858 0,0.0644 -0.07151,0.2074 -0.06436,0.13583 -0.193096,0.30752 -0.12873,0.16455 -0.379038,0.29322 -0.25031,0.12164 -0.55068,0.12164 -0.629348,0 -1.101358,-0.47201 -0.472011,-0.47916 -0.472011,-1.18003 z m 0.600742,-0.22884 h 1.694948 q 0,-0.15019 -0.0286,-0.31468 -0.02145,-0.17164 -0.100129,-0.4005 -0.07151,-0.236 -0.25031,-0.37902 -0.171641,-0.15019 -0.4291,-0.15019 -0.114421,0 -0.243158,0.05 -0.121585,0.05 -0.271763,0.17164 -0.150186,0.11437 -0.257461,0.38618 -0.100129,0.26461 -0.114421,0.63651 z"
         id="path2966"
         style="fill:#000000;stroke-width:0.264583" />
      <path
         d="m 40.733141,135.48455 v -0.22169 h 0.564982 v -0.82244 q 0,-0.52923 0.343281,-0.82959 0.343281,-0.30753 0.76523,-0.30753 0.278916,0 0.457707,0.15019 0.185945,0.15019 0.185945,0.35043 0,0.13588 -0.08582,0.22886 -0.07868,0.0858 -0.228855,0.0858 -0.143039,0 -0.228853,-0.0858 -0.07867,-0.0929 -0.07867,-0.2217 0,-0.22886 0.21455,-0.30038 -0.107275,-0.0501 -0.236005,-0.0501 -0.257461,0 -0.457708,0.26461 -0.200246,0.26462 -0.200246,0.70801 v 0.82961 h 0.836747 v 0.22169 H 41.77013 v 2.30285 q 0,0.20738 0.08582,0.27175 0.08582,0.0644 0.457707,0.0644 h 0.150186 v 0.22172 q -0.286067,-0.0215 -0.908264,-0.0215 -0.08582,0 -0.221702,0.007 -0.135876,0 -0.314675,0.007 -0.178791,0.007 -0.278915,0.007 v -0.22172 q 0.37904,0 0.46486,-0.0429 0.09297,-0.05 0.09297,-0.27891 v -2.31714 z"
         id="path2968"
         style="fill:#000000;stroke-width:0.264583" />
      <path
         d="m 42.878647,138.91021 q 0,-0.22886 0.17164,-0.4291 0.178792,-0.20024 0.486314,-0.28606 -0.314673,-0.20026 -0.314673,-0.63651 0,-0.33614 0.221702,-0.5936 -0.33613,-0.27891 -0.33613,-0.73661 0,-0.42195 0.33613,-0.72947 0.336128,-0.31468 0.822443,-0.31468 0.429102,0 0.758079,0.25746 0.343281,-0.33611 0.758078,-0.33611 0.185943,0 0.271763,0.11437 0.09297,0.11437 0.09297,0.236 0,0.10728 -0.07151,0.16455 -0.06437,0.05 -0.135876,0.05 -0.08582,0 -0.150186,-0.0573 -0.05722,-0.0573 -0.05722,-0.15018 0,-0.15019 0.114421,-0.1931 -0.02145,-0.007 -0.07151,-0.007 -0.350432,0 -0.64365,0.27891 0.293218,0.27177 0.293218,0.6937 0,0.42195 -0.336128,0.73663 -0.33613,0.30752 -0.822444,0.30752 -0.400495,0 -0.708017,-0.2217 -0.121584,0.14309 -0.121584,0.33612 0,0.17881 0.107275,0.32183 0.107275,0.13582 0.271765,0.15728 0.05006,0.007 0.536376,0.007 0.286067,0 0.443404,0.007 0.157331,0.007 0.37904,0.0573 0.228853,0.0429 0.407645,0.13583 0.46486,0.25746 0.46486,0.81529 0,0.40765 -0.472012,0.66511 -0.464858,0.25746 -1.115661,0.25746 -0.657956,0 -1.122815,-0.26461 -0.457707,-0.25746 -0.457707,-0.64365 z m 0.371887,0 q 0,0.29322 0.343281,0.51492 0.350432,0.22886 0.872505,0.22886 0.514922,0 0.858203,-0.22171 0.350432,-0.2217 0.350432,-0.52207 0,-0.21455 -0.121585,-0.35043 -0.121584,-0.13582 -0.371887,-0.19309 -0.25031,-0.05 -0.429101,-0.0573 -0.171641,-0.0135 -0.493467,-0.0135 h -0.421943 q -0.243157,0.0135 -0.414797,0.1931 -0.171641,0.1788 -0.171641,0.42195 z m 0.393342,-2.67473 q 0,0.87965 0.622197,0.87965 0.314673,0 0.507769,-0.28606 0.114421,-0.1931 0.114421,-0.60074 0,-0.87965 -0.622195,-0.87965 -0.314675,0 -0.50777,0.28606 -0.114422,0.19309 -0.114422,0.60074 z"
         id="path2970"
         style="fill:#cccccc;stroke-width:0.264583" />
      <path
         d="m 46.483094,138.34523 v -0.22171 q 0.37904,0 0.464859,-0.0429 0.09297,-0.05 0.09297,-0.27892 v -3.71886 q 0,-0.26461 -0.09297,-0.32897 -0.09297,-0.0715 -0.464859,-0.0715 v -0.2217 l 1.029843,-0.0787 v 2.48877 h 0.0071 q 0.114421,-0.25745 0.371887,-0.47201 0.257461,-0.21455 0.657954,-0.21455 0.536377,0 0.750927,0.26463 0.157332,0.17878 0.185945,0.37902 0.03576,0.20026 0.03576,0.71518 v 1.36596 q 0.0071,0.15018 0.121584,0.18595 0.114422,0.0285 0.436253,0.0285 v 0.22171 q -0.729473,-0.0214 -0.800989,-0.0214 -0.05722,0 -0.80814,0.0214 v -0.22171 q 0.379039,0 0.464859,-0.0429 0.09297,-0.05 0.09297,-0.27892 v -1.66633 q 0,-0.36473 -0.114421,-0.57928 -0.107275,-0.21455 -0.414797,-0.21455 -0.371888,0 -0.672258,0.31466 -0.293219,0.30753 -0.293219,0.8296 v 1.3159 q 0,0.22886 0.08582,0.27892 0.09297,0.0429 0.472011,0.0429 v 0.22171 q -0.72947,-0.0214 -0.800988,-0.0214 -0.05722,0 -0.80814,0.0214 z"
         id="path2972"
         style="fill:#000000;stroke-width:0.264583" />
      <path
         d="m 50.459431,138.34523 v -0.22171 q 0.37904,0 0.46486,-0.0429 0.09297,-0.05 0.09297,-0.27892 v -1.92379 q 0,-0.26461 -0.09297,-0.32898 -0.08582,-0.0644 -0.436254,-0.0644 v -0.22169 l 1.001237,-0.0787 v 2.62467 q 0,0.21455 0.07151,0.26461 0.07867,0.05 0.429101,0.05 v 0.22171 q -0.729472,-0.0215 -0.743776,-0.0215 -0.100129,0 -0.786685,0.0215 z m 0.30037,-4.40543 q 0,-0.14303 0.107276,-0.25746 0.114421,-0.12158 0.271763,-0.12158 0.157331,0 0.264613,0.10727 0.114422,0.10728 0.114422,0.27176 0,0.16455 -0.114422,0.27177 -0.107275,0.10728 -0.264613,0.10728 -0.164495,0 -0.271763,-0.11438 -0.107276,-0.11437 -0.107276,-0.26462 z"
         id="path2974"
         style="fill:#000000;stroke-width:0.264583" />
      <path
         d="m 53.055495,134.21157 q -0.107275,-0.11438 -0.107275,-0.27177 0,-0.15734 0.107275,-0.26461 0.114421,-0.11442 0.271763,-0.11442 0.157331,0 0.264612,0.11442 0.114421,0.10728 0.114421,0.26461 0,0.15728 -0.114421,0.27177 -0.107275,0.10727 -0.264612,0.10727 -0.157332,0 -0.271763,-0.10727 z m -1.137118,5.02761 q 0,-0.14309 0.09297,-0.236 0.08582,-0.0929 0.236006,-0.0929 0.150185,0 0.236005,0.0929 0.09297,0.0929 0.09297,0.236 0,0.12873 -0.07867,0.20741 -0.07151,0.0858 -0.17164,0.11437 0.185944,0.0929 0.386191,0.0929 0.164494,0 0.271763,-0.10018 0.114421,-0.0929 0.164494,-0.25746 0.05006,-0.15728 0.06437,-0.29322 0.02145,-0.13583 0.02145,-0.28607 v -2.83206 q 0,-0.2646 -0.107276,-0.32897 -0.100129,-0.0715 -0.50777,-0.0715 v -0.22169 l 1.087057,-0.0787 v 3.51862 q 0,0.47918 -0.286069,0.79384 -0.286066,0.31468 -0.693713,0.31468 -0.328977,0 -0.564982,-0.15728 -0.243157,-0.15019 -0.243157,-0.41481 z"
         id="path2976"
         style="fill:#cccccc;stroke-width:0.264583" />
      <path
         d="m 54.585959,138.34523 v -0.22171 q 0.379038,0 0.464859,-0.0429 0.09297,-0.05 0.09297,-0.27892 v -3.71886 q 0,-0.26461 -0.09297,-0.32897 -0.09297,-0.0715 -0.464859,-0.0715 v -0.2217 l 1.029841,-0.0787 v 3.43279 l 1.008388,-0.87249 q 0.157332,-0.13583 0.157332,-0.27892 0,-0.16454 -0.2074,-0.1788 v -0.22169 q 0.300371,0.0215 0.800989,0.0215 0.29322,0 0.500617,-0.0215 v 0.22169 q -0.450554,0.0215 -0.901111,0.38619 -0.100129,0.0787 -0.343281,0.28608 -0.236005,0.20739 -0.236005,0.22884 0,0.007 0.0071,0.0285 0.0071,0.0135 0.02145,0.0285 0.01436,0.0135 0.01436,0.0215 l 0.908264,1.28015 q 0.185944,0.25746 0.321826,0.32183 0.135876,0.0573 0.371887,0.0573 v 0.22171 q -0.307522,-0.0214 -0.622197,-0.0214 -0.171641,0 -0.772381,0.0214 v -0.22171 q 0.257461,0 0.257461,-0.16455 0,-0.11437 -0.579287,-0.91542 -0.04291,-0.0573 -0.135876,-0.17879 -0.08582,-0.12873 -0.135877,-0.19309 l -0.457707,0.39334 v 0.73661 q 0,0.22886 0.08582,0.27892 0.09297,0.0429 0.472012,0.0429 v 0.22171 q -0.429102,-0.0215 -0.786685,-0.0215 -0.07151,0 -0.779533,0.0215 z"
         id="path2978"
         style="fill:#cccccc;stroke-width:0.264583" />
      <path
         d="m 58.390656,138.34523 v -0.22171 q 0.379039,0 0.464859,-0.0429 0.09297,-0.05 0.09297,-0.27892 v -3.71886 q 0,-0.26461 -0.09297,-0.32897 -0.09297,-0.0715 -0.464859,-0.0715 v -0.2217 l 1.029842,-0.0787 v 4.41972 q 0,0.22886 0.08582,0.27892 0.09297,0.0429 0.472011,0.0429 v 0.22171 q -0.08582,0 -0.271763,-0.007 -0.178793,-0.007 -0.314674,-0.007 -0.128731,-0.007 -0.207398,-0.007 -0.08582,0 -0.793838,0.0214 z"
         id="path2980"
         style="fill:#cccccc;stroke-width:0.264583" />
      <path
         d="m 60.364524,138.34523 v -0.22171 q 0.379038,0 0.464859,-0.0429 0.09297,-0.05 0.09297,-0.27892 v -1.91664 q 0,-0.2646 -0.09297,-0.32897 -0.09297,-0.0715 -0.464859,-0.0715 v -0.22169 l 1.008386,-0.0787 v 0.75092 q 0.33613,-0.75092 1.058449,-0.75092 0.836748,0 0.951174,0.70087 0.121585,-0.27177 0.379039,-0.48632 0.257461,-0.21455 0.657956,-0.21455 0.536376,0 0.750925,0.26462 0.157332,0.17879 0.185945,0.37903 0.03576,0.20026 0.03576,0.71517 v 1.36596 q 0.0071,0.15019 0.121584,0.18595 0.114421,0.0285 0.436252,0.0285 v 0.22172 q -0.72947,-0.0215 -0.800988,-0.0215 -0.05722,0 -0.80814,0.0215 v -0.22172 q 0.37904,0 0.464861,-0.0429 0.09297,-0.05 0.09297,-0.27891 v -1.66633 q 0,-0.36474 -0.114422,-0.57928 -0.107275,-0.21455 -0.414799,-0.21455 -0.371887,0 -0.672258,0.31466 -0.293218,0.30753 -0.293218,0.8296 v 1.3159 q 0,0.22886 0.08582,0.27891 0.09297,0.0429 0.472011,0.0429 v 0.22172 q -0.729472,-0.0215 -0.800989,-0.0215 -0.05722,0 -0.808141,0.0215 v -0.22172 q 0.37904,0 0.46486,-0.0429 0.09297,-0.05 0.09297,-0.27891 v -1.66633 q 0,-0.36474 -0.114422,-0.57928 -0.107275,-0.21455 -0.414797,-0.21455 -0.371887,0 -0.672258,0.31466 -0.29322,0.30753 -0.29322,0.8296 v 1.3159 q 0,0.22886 0.08582,0.27891 0.09297,0.0429 0.472012,0.0429 v 0.22172 q -0.729472,-0.0215 -0.800989,-0.0215 -0.05722,0 -0.808139,0.0215 z"
         id="path2982"
         style="fill:#cccccc;stroke-width:0.264583" />
      <path
         d="m 66.321874,138.34523 v -0.22171 q 0.37904,0 0.46486,-0.0429 0.09297,-0.05 0.09297,-0.27892 v -1.91664 q 0,-0.2646 -0.09297,-0.32897 -0.09297,-0.0715 -0.46486,-0.0715 v -0.22169 l 1.008388,-0.0787 v 0.75092 q 0.336128,-0.75092 1.058447,-0.75092 0.536377,0 0.750928,0.26462 0.157331,0.17879 0.185944,0.37903 0.03576,0.20026 0.03576,0.71517 v 1.36596 q 0.0071,0.15019 0.121584,0.18595 0.114422,0.0285 0.436253,0.0285 v 0.22172 q -0.729472,-0.0215 -0.800989,-0.0215 -0.05722,0 -0.808139,0.0215 v -0.22172 q 0.379038,0 0.464858,-0.0429 0.09297,-0.05 0.09297,-0.27891 v -1.66633 q 0,-0.36474 -0.114422,-0.57928 -0.107275,-0.21455 -0.414797,-0.21455 -0.371887,0 -0.672258,0.31466 -0.293218,0.30753 -0.293218,0.8296 v 1.3159 q 0,0.22886 0.08582,0.27891 0.09297,0.0429 0.47201,0.0429 v 0.22172 q -0.729471,-0.0215 -0.800989,-0.0215 -0.05722,0 -0.808139,0.0215 z"
         id="path2984"
         style="fill:#000000;stroke-width:0.264583" />
      <path
         d="m 70.734466,137.95904 q -0.47201,-0.46487 -0.47201,-1.14428 0,-0.6794 0.457708,-1.17286 0.464858,-0.50063 1.129965,-0.50063 0.650803,0 1.115662,0.49347 0.46486,0.49346 0.46486,1.18002 0,0.67227 -0.472011,1.14428 -0.464861,0.46485 -1.115664,0.46485 -0.636499,0 -1.10851,-0.46485 z m 0.121584,-1.20148 q 0,0.6937 0.178792,1.00838 0.278916,0.47916 0.815292,0.47916 0.264612,0 0.486314,-0.14309 0.221702,-0.14309 0.343281,-0.38619 0.157331,-0.31466 0.157331,-0.95831 0,-0.68656 -0.185942,-0.9941 -0.278916,-0.46484 -0.808142,-0.46484 -0.228853,0 -0.457707,0.12164 -0.221702,0.12163 -0.357583,0.35758 -0.171641,0.31468 -0.171641,0.97978 z"
         id="path2986"
         style="fill:#cccccc;stroke-width:0.264583" />
      <path
         d="m 73.838296,139.51095 q 0.37904,0 0.46486,-0.05 0.09297,-0.0429 0.09297,-0.27177 v -3.34699 q 0,-0.236 -0.09297,-0.29322 -0.08582,-0.0644 -0.46486,-0.0644 v -0.2217 l 1.029843,-0.0787 v 0.47201 q 0.429101,-0.47201 1.001235,-0.47201 0.607893,0 1.051298,0.47201 0.443403,0.47201 0.443403,1.14428 0,0.6794 -0.472011,1.15141 -0.472011,0.47201 -1.122814,0.47201 -0.357584,0 -0.600741,-0.17879 -0.236005,-0.18595 -0.278915,-0.32182 v 0.0644 1.20148 q 0,0.22886 0.08582,0.27177 0.09297,0.05 0.472011,0.05 v 0.2217 q -0.750927,-0.0215 -0.808141,-0.0215 -0.07151,0 -0.800988,0.0215 z m 1.051298,-1.98101 q 0,0.10727 0.01436,0.15018 0.01436,0.0358 0.08582,0.15019 0.286068,0.43625 0.750927,0.43625 0.407646,0 0.715168,-0.4148 0.314675,-0.42195 0.314675,-1.05129 0,-0.60074 -0.286069,-1.01555 -0.278914,-0.42193 -0.672258,-0.42193 -0.278914,0 -0.522073,0.15018 -0.243156,0.15019 -0.400493,0.42194 z"
         id="path2988"
         style="fill:#cccccc;stroke-width:0.264583" />
      <path
         d="m 78.050639,136.80761 q 0,-0.68655 0.472012,-1.15142 0.472011,-0.47201 1.10851,-0.47201 0.264612,0 0.479163,0.12873 0.221701,0.12873 0.314674,0.25747 0.10013,0.12873 0.164495,0.26461 l 0.271765,-0.65081 h 0.157331 v 4.00494 q 0,0.22886 0.08582,0.27177 0.09297,0.05 0.472012,0.05 v 0.2217 q -0.750928,-0.0215 -0.80814,-0.0215 -0.07151,0 -0.800988,0.0215 v -0.2217 q 0.379038,0 0.464858,-0.05 0.09297,-0.0429 0.09297,-0.27177 v -1.28015 q -0.393343,0.51492 -0.951174,0.51492 -0.622196,0 -1.072752,-0.47201 -0.450556,-0.47916 -0.450556,-1.14427 z m 0.593591,0 q 0,0.61505 0.278914,1.03699 0.286069,0.42196 0.679411,0.42196 0.386191,0 0.657954,-0.29323 0.286067,-0.31466 0.286067,-0.60074 v -1.00838 q 0,-0.33612 -0.243157,-0.66511 -0.236006,-0.33611 -0.629348,-0.33611 -0.407646,0 -0.722319,0.41478 -0.307522,0.40765 -0.307522,1.02984 z"
         id="path2990"
         style="fill:#cccccc;stroke-width:0.264583" />
      <path
         d="m 81.776666,138.34523 v -0.22171 q 0.379038,0 0.464858,-0.0429 0.09297,-0.05 0.09297,-0.27892 v -1.91664 q 0,-0.2646 -0.09297,-0.32897 -0.09297,-0.0715 -0.464858,-0.0715 v -0.22169 l 0.994084,-0.0787 v 0.78669 q 0.100129,-0.30752 0.314673,-0.54352 0.214551,-0.24317 0.564983,-0.24317 0.228854,0 0.37904,0.12873 0.150185,0.12873 0.150185,0.30754 0,0.15728 -0.100129,0.236 -0.09297,0.0787 -0.207398,0.0787 -0.12873,0 -0.221703,-0.0787 -0.08582,-0.0858 -0.08582,-0.22886 0,-0.0858 0.03576,-0.15018 0.04291,-0.0715 0.07151,-0.0929 0.03576,-0.0285 0.05722,-0.0358 -0.01436,-0.007 -0.07867,-0.007 -0.393343,0 -0.622196,0.39333 -0.221703,0.39334 -0.221703,0.95116 v 1.10137 q 0,0.20739 0.08582,0.27176 0.08582,0.0644 0.457708,0.0644 h 0.150185 v 0.22172 q -0.286067,-0.0215 -0.908264,-0.0215 -0.08582,0 -0.221701,0.007 -0.135877,0 -0.314674,0.007 -0.178791,0.007 -0.278915,0.007 z"
         id="path2992"
         style="fill:#cccccc;stroke-width:0.264583" />
      <path
         d="m 84.608738,138.25225 v -0.94402 q 0,-0.0787 0,-0.10728 0.0071,-0.0285 0.0286,-0.05 0.02146,-0.0214 0.06437,-0.0214 0.05006,0 0.06436,0.0214 0.02146,0.0215 0.03576,0.10018 0.107275,0.49347 0.336128,0.75808 0.236006,0.25746 0.657956,0.25746 0.400494,0 0.60074,-0.17879 0.2074,-0.1788 0.2074,-0.47201 0,-0.52208 -0.743775,-0.65796 -0.429101,-0.0858 -0.607893,-0.14309 -0.178793,-0.0573 -0.336129,-0.18593 -0.307522,-0.25031 -0.307522,-0.6079 0,-0.35758 0.271763,-0.61503 0.271764,-0.26463 0.872506,-0.26463 0.400493,0 0.672258,0.20026 0.07867,-0.0644 0.121584,-0.11437 0.09297,-0.0858 0.14304,-0.0858 0.05722,0 0.06437,0.0358 0.01436,0.0358 0.01436,0.13582 v 0.72232 q 0,0.0787 -0.0071,0.10728 0,0.0285 -0.02145,0.05 -0.02146,0.0135 -0.06437,0.0135 -0.07867,0 -0.08582,-0.0644 -0.05722,-0.86534 -0.836746,-0.86534 -0.42195,0 -0.615046,0.16455 -0.185942,0.15728 -0.185942,0.37904 0,0.12163 0.05722,0.21455 0.05722,0.0929 0.12873,0.15018 0.07867,0.05 0.214551,0.10018 0.143039,0.05 0.228854,0.0715 0.08582,0.0135 0.250308,0.05 0.572136,0.10727 0.815293,0.34327 0.300371,0.30037 0.300371,0.67942 0,0.42196 -0.286069,0.70802 -0.286067,0.28606 -0.865352,0.28606 -0.46486,0 -0.786686,-0.30752 -0.04291,0.0429 -0.07867,0.0787 -0.0286,0.0358 -0.04291,0.05 -0.0071,0.0135 -0.01436,0.0215 0,0.007 -0.0071,0.0135 -0.143039,0.14309 -0.178793,0.14309 -0.05722,0 -0.07151,-0.0358 -0.0071,-0.0358 -0.0071,-0.13583 z"
         id="path2994"
         style="fill:#000000;stroke-width:0.264583" />
      <path
         d="m 87.326368,135.48455 v -0.15728 q 0.328977,-0.0135 0.543527,-0.24315 0.221702,-0.236 0.29322,-0.52208 0.07867,-0.28606 0.08582,-0.61503 h 0.178792 v 1.3159 h 1.02269 v 0.2217 h -1.02269 v 1.98816 q 0,0.77238 0.479163,0.77238 0.207397,0 0.343281,-0.2074 0.135876,-0.21455 0.135876,-0.59358 v -0.39335 h 0.178792 v 0.40764 q 0,0.38619 -0.178792,0.67942 -0.178792,0.28606 -0.529224,0.28606 -0.12873,0 -0.257461,-0.0358 -0.12873,-0.0285 -0.293219,-0.11437 -0.164495,-0.0858 -0.271763,-0.2932 -0.10013,-0.21455 -0.10013,-0.52209 v -1.97385 z"
         id="path2996"
         style="fill:#000000;stroke-width:0.264583" />
      <path
         d="m 90.194198,135.48455 v -0.22169 l 1.051299,-0.0787 v 2.37436 q 0,0.17164 0.01436,0.27177 0.01436,0.10018 0.07151,0.21455 0.05722,0.11437 0.193095,0.17164 0.135877,0.05 0.350432,0.05 0.386191,0 0.622197,-0.31468 0.243157,-0.32183 0.243157,-0.79384 v -1.27299 q 0,-0.2646 -0.09297,-0.32897 -0.09297,-0.0715 -0.464861,-0.0715 v -0.2217 l 1.051298,-0.0787 v 2.53885 q 0,0.26461 0.09297,0.33612 0.09297,0.0644 0.464858,0.0644 v 0.22172 l -1.029841,0.0787 v -0.64365 q -0.300371,0.64365 -0.922568,0.64365 -0.314673,0 -0.529224,-0.0787 -0.21455,-0.0787 -0.321825,-0.17881 -0.107276,-0.10018 -0.164495,-0.2932 -0.05722,-0.1931 -0.06437,-0.30754 -0.0071,-0.12163 -0.0071,-0.35043 v -1.07274 q 0,-0.48632 -0.07151,-0.57214 -0.07151,-0.0858 -0.486315,-0.0858 z"
         id="path2998"
         style="fill:#cccccc;stroke-width:0.264583" />
      <path
         d="m 94.070412,135.48455 v -0.22169 q 0.321826,0.0215 0.693713,0.0215 0.135877,0 0.779534,-0.0215 v 0.22169 q -0.407646,0 -0.407646,0.18595 0,0.0285 0.04291,0.12163 l 0.800988,1.99532 0.729472,-1.82368 q 0.04291,-0.12163 0.04291,-0.17164 0,-0.12163 -0.08582,-0.2074 -0.07867,-0.0929 -0.257461,-0.10018 v -0.22169 q 0.364737,0.0215 0.622196,0.0215 0.293219,0 0.536376,-0.0215 v 0.22169 q -0.21455,0 -0.364736,0.10018 -0.150185,0.0929 -0.200247,0.17879 -0.04291,0.0787 -0.09297,0.20025 l -0.93687,2.32429 q -0.05722,0.13583 -0.150185,0.13583 -0.06437,0 -0.09297,-0.0285 -0.02146,-0.0215 -0.05722,-0.10728 l -1.029843,-2.53884 q -0.07151,-0.17879 -0.164494,-0.2217 -0.08582,-0.0429 -0.407646,-0.0429 z"
         id="path3000"
         style="fill:#cccccc;stroke-width:0.264583" />
      <path
         d="m 97.832196,135.48455 v -0.22169 q 0.386191,0.0215 0.665107,0.0215 0.135877,0 0.779534,-0.0215 v 0.22169 q -0.421951,0 -0.421951,0.1931 0,0.0429 0.03576,0.12873 l 0.67941,1.90949 0.615054,-1.73069 q -0.12874,-0.35044 -0.1645,-0.39335 -0.08582,-0.10728 -0.450559,-0.10728 v -0.22169 q 0.321826,0.0215 0.636509,0.0215 0.12158,0 0.74377,-0.0215 v 0.22169 q -0.42195,0 -0.42195,0.1931 0,0.0285 0.0358,0.13582 l 0.70801,1.99532 0.65081,-1.83084 q 0.0358,-0.0929 0.0358,-0.15019 0,-0.15728 -0.11442,-0.24314 -0.10728,-0.0929 -0.30037,-0.10018 v -0.2217 q 0.40764,0.0214 0.6651,0.0214 0.28607,0 0.52208,-0.0214 v 0.2217 q -0.44341,0.0135 -0.60074,0.45771 l -0.83675,2.34574 q -0.0787,0.12873 -0.14304,0.13583 -0.093,0 -0.14304,-0.13583 l -0.72947,-2.03108 -0.722325,2.02394 q -0.0286,0.0858 -0.05722,0.11437 -0.02146,0.0285 -0.08582,0.0285 -0.06436,0 -0.09297,-0.0358 -0.0286,-0.0358 -0.05722,-0.12163 l -0.901111,-2.53169 q -0.06436,-0.16455 -0.157331,-0.2074 -0.09297,-0.0429 -0.371887,-0.0429 z"
         id="path3002"
         style="fill:#cccccc;stroke-width:0.264583" />
      <path
         d="m 102.9528,138.34523 v -0.22171 q 0.55783,0 0.91542,-0.4291 0,0 0.67226,-0.85104 l -0.70802,-0.92257 q -0.25031,-0.32182 -0.36474,-0.37904 -0.10727,-0.0573 -0.47916,-0.0573 v -0.22169 q 0.29322,0.0214 0.67941,0.0214 0.21455,0 0.77238,-0.0214 v 0.22169 q -0.25031,0.0135 -0.25031,0.1788 0,0.0573 0.0644,0.12873 l 0.55783,0.72231 0.4434,-0.55783 q 0.10728,-0.12873 0.10728,-0.2503 0,-0.20025 -0.2074,-0.22171 v -0.22169 q 0.27892,0.0214 0.68656,0.0214 0.30752,0 0.58644,-0.0214 v 0.22169 q -0.54353,0.0135 -0.85105,0.3719 -0.13588,0.15018 -0.65796,0.80812 l 0.95833,1.23725 q 0.11442,0.15019 0.24316,0.18595 0.12873,0.0358 0.43625,0.0358 v 0.22172 q -0.32183,-0.0215 -0.68656,-0.0215 -0.12873,0 -0.77238,0.0215 v -0.22172 q 0.12873,-0.007 0.19309,-0.0644 0.0644,-0.0573 0.0644,-0.11437 0,-0.0285 -0.15019,-0.23601 l -0.54353,-0.71516 q -0.54352,0.64365 -0.61504,0.79384 -0.0286,0.0644 -0.0286,0.11437 0,0.19309 0.2074,0.22169 v 0.22172 q -0.51492,-0.0215 -0.67941,-0.0215 -0.31468,0 -0.59359,0.0215 z"
         id="path3004"
         style="fill:#cccccc;stroke-width:0.264583" />
      <path
         d="m 106.77181,139.23203 q 0,-0.15018 0.0858,-0.22885 0.093,-0.0787 0.21455,-0.0787 0.12873,0 0.21455,0.0787 0.0858,0.0858 0.0858,0.22171 0,0.26461 -0.27892,0.30037 0.13588,0.12873 0.33613,0.12873 0.21455,0 0.38619,-0.15728 0.17164,-0.15728 0.24316,-0.30752 0.0787,-0.15018 0.18594,-0.42195 0.10013,-0.21455 0.17879,-0.42194 l -1.07275,-2.61037 q -0.0715,-0.17163 -0.17879,-0.2074 -0.10727,-0.0429 -0.40049,-0.0429 v -0.22169 q 0.32182,0.0214 0.69371,0.0214 0.2217,0 0.77953,-0.0214 v 0.22169 q -0.40049,0 -0.40049,0.18595 0,0.0215 0.0429,0.12873 l 0.79384,1.9238 0.72232,-1.75931 q 0.0429,-0.10018 0.0429,-0.17164 0,-0.29322 -0.33613,-0.30753 v -0.22169 q 0.47201,0.0214 0.62219,0.0214 0.29322,0 0.53638,-0.0214 v 0.22169 q -0.47916,0 -0.66511,0.45772 l -1.25869,3.05376 q -0.34328,0.81529 -0.91542,0.81529 -0.27176,0 -0.46486,-0.17164 -0.19309,-0.16455 -0.19309,-0.40765 z"
         id="path3006"
         style="fill:#cccccc;stroke-width:0.264583" />
      <path
         d="m 110.60511,138.2451 q 0,-0.05 0.0644,-0.12873 l 1.99532,-2.69618 h -0.81529 q -0.56498,0 -0.75093,0.2074 -0.17879,0.2074 -0.21455,0.78669 h -0.17879 l 0.0787,-1.15142 h 2.28853 q 0.0787,0 0.10728,0.007 0.0358,0 0.0572,0.0214 0.0215,0.0215 0.0215,0.0644 0,0.0429 -0.0644,0.12163 l -1.98817,2.68902 h 0.8439 q 0.59359,0 0.79384,-0.24315 0.20024,-0.25032 0.25031,-0.91542 h 0.17879 l -0.12159,1.33737 h -2.36005 q -0.11442,0 -0.15019,-0.0135 -0.0358,-0.0135 -0.0358,-0.0858 z"
         id="path3008"
         style="fill:#cccccc;stroke-width:0.264583" />
      <path
         d="m 43.682136,168.82641 v -5.43359 h 4.375515 v 5.43359 z m 0.51682,-4.91678 v 4.39996 0 l 1.306019,-2.19999 z m 2.615531,0 h -1.878712 l 0.939355,1.83331 z m -1.878712,4.39996 h 1.878712 l -0.939357,-1.83331 z m 2.605056,-4.39996 -1.306021,2.19997 1.306021,2.19999 v 0 z"
         id="path2864-3"
         style="font-size:4.23333px;line-height:1.25;font-family:'CMU Serif';-inkscape-font-specification:'CMU Serif';letter-spacing:0px;word-spacing:0px;stroke-width:0.264583" />
      <path
         d="m 48.003187,129.11789 v -5.4336 h 4.375516 v 5.4336 z m 0.516821,-4.91678 v 4.39996 0 l 1.306018,-2.19998 z m 2.615531,0 h -1.87871 l 0.939355,1.83332 z m -1.878712,4.39996 h 1.878712 l -0.939357,-1.83331 z m 2.605055,-4.39996 -1.30602,2.19998 1.30602,2.19998 v 0 z"
         id="path2864-3-6"
         style="font-size:4.23333px;line-height:1.25;font-family:'CMU Serif';-inkscape-font-specification:'CMU Serif';letter-spacing:0px;word-spacing:0px;stroke-width:0.264583" />
      <path
         d="m 22.567861,148.98429 v -0.15728 q 0.328977,-0.0135 0.543528,-0.24315 0.221702,-0.23601 0.29322,-0.52209 0.07867,-0.28606 0.08582,-0.61503 h 0.178793 v 1.3159 h 1.02269 v 0.2217 h -1.02269 v 1.98818 q 0,0.77238 0.479163,0.77238 0.207398,0 0.343281,-0.20741 0.135876,-0.21455 0.135876,-0.59358 v -0.39335 h 0.178792 v 0.40765 q 0,0.38619 -0.178792,0.67941 -0.178791,0.28606 -0.529224,0.28606 -0.12873,0 -0.25746,-0.0358 -0.128731,-0.0285 -0.29322,-0.11437 -0.164495,-0.0858 -0.271763,-0.29321 -0.100129,-0.21455 -0.100129,-0.52208 v -1.97387 z"
         id="path3057"
         style="stroke-width:0.264583" />
      <path
         d="m 25.435689,151.84496 v -0.2217 q 0.37904,0 0.46486,-0.0429 0.09297,-0.05 0.09297,-0.27891 v -3.71887 q 0,-0.26463 -0.09297,-0.32899 -0.09297,-0.0715 -0.46486,-0.0715 v -0.2217 l 1.029843,-0.0787 v 2.48879 h 0.0071 q 0.114421,-0.25746 0.371887,-0.47201 0.257461,-0.21455 0.657956,-0.21455 0.536375,0 0.750926,0.26461 0.157331,0.1788 0.185944,0.37904 0.03576,0.20024 0.03576,0.71516 v 1.36598 q 0.0071,0.15019 0.121584,0.18594 0.114422,0.0285 0.436253,0.0285 v 0.22171 q -0.729472,-0.0215 -0.800989,-0.0215 -0.05722,0 -0.808139,0.0215 v -0.22171 q 0.379038,0 0.464858,-0.0429 0.09297,-0.05 0.09297,-0.2789 V 149.635 q 0,-0.36474 -0.114422,-0.57929 -0.107275,-0.21455 -0.414797,-0.21455 -0.371887,0 -0.672258,0.31468 -0.293218,0.30752 -0.293218,0.8296 v 1.31591 q 0,0.22886 0.08582,0.27891 0.09297,0.0429 0.47201,0.0429 v 0.2217 q -0.729471,-0.0215 -0.800989,-0.0215 -0.05722,0 -0.808139,0.0215 z"
         id="path3059"
         style="stroke-width:0.264583" />
      <path
         d="m 29.412026,151.84496 v -0.2217 q 0.379039,0 0.464859,-0.0429 0.09297,-0.05 0.09297,-0.27891 v -1.92381 q 0,-0.26461 -0.09297,-0.32897 -0.08582,-0.0644 -0.436252,-0.0644 v -0.2217 l 1.001235,-0.0787 v 2.62466 q 0,0.21455 0.07151,0.26461 0.07867,0.05 0.4291,0.05 v 0.22171 q -0.729471,-0.0215 -0.743775,-0.0215 -0.100129,0 -0.786684,0.0215 z m 0.300371,-4.40543 q 0,-0.14309 0.107276,-0.25746 0.114421,-0.12164 0.271763,-0.12164 0.157331,0 0.264612,0.10728 0.114421,0.10727 0.114421,0.27177 0,0.16454 -0.114421,0.27175 -0.107276,0.10727 -0.264612,0.10727 -0.164495,0 -0.271763,-0.11437 -0.107276,-0.11437 -0.107276,-0.2646 z"
         id="path3061"
         style="stroke-width:0.264583" />
      <path
         d="m 31.393045,151.75199 v -0.94402 q 0,-0.0787 0,-0.10727 0.0071,-0.0286 0.0286,-0.05 0.02145,-0.0215 0.06437,-0.0215 0.05006,0 0.06437,0.0215 0.02145,0.0215 0.03576,0.10018 0.107275,0.49347 0.336128,0.75807 0.236006,0.25746 0.657954,0.25746 0.400495,0 0.600742,-0.17878 0.207399,-0.17879 0.207399,-0.47201 0,-0.52207 -0.743776,-0.65796 -0.429099,-0.0858 -0.607893,-0.14309 -0.178791,-0.0573 -0.336128,-0.18594 -0.307522,-0.25031 -0.307522,-0.6079 0,-0.35758 0.271763,-0.61504 0.271765,-0.26462 0.872505,-0.26462 0.400495,0 0.672258,0.20026 0.07867,-0.0644 0.121584,-0.11437 0.09297,-0.0858 0.14304,-0.0858 0.05722,0 0.06436,0.0358 0.01436,0.0358 0.01436,0.13583 v 0.72231 q 0,0.0787 -0.0071,0.10727 0,0.0285 -0.02146,0.05 -0.02146,0.0135 -0.06437,0.0135 -0.07867,0 -0.08582,-0.0644 -0.05722,-0.86535 -0.836748,-0.86535 -0.421948,0 -0.615044,0.16454 -0.185943,0.15729 -0.185943,0.37905 0,0.12163 0.05722,0.21455 0.05722,0.0929 0.12873,0.15019 0.07867,0.05 0.214551,0.10018 0.143039,0.05 0.228854,0.0715 0.08582,0.0135 0.250308,0.05 0.572134,0.10728 0.815293,0.34328 0.30037,0.30037 0.30037,0.6794 0,0.42196 -0.286068,0.70802 -0.286067,0.28608 -0.865354,0.28608 -0.464858,0 -0.786684,-0.30754 -0.04291,0.0429 -0.07868,0.0787 -0.0286,0.0358 -0.04291,0.05 -0.0071,0.0135 -0.01436,0.0215 0,0.007 -0.0071,0.0135 -0.143039,0.14309 -0.178793,0.14309 -0.05722,0 -0.07151,-0.0358 -0.0071,-0.0358 -0.0071,-0.13583 z"
         id="path3063"
         style="stroke-width:0.264583" />
      <path
         d="m 36.592313,151.84496 v -0.2217 q 0.379039,0 0.464859,-0.0429 0.09297,-0.05 0.09297,-0.27891 v -1.92381 q 0,-0.26461 -0.09297,-0.32897 -0.08582,-0.0644 -0.436253,-0.0644 v -0.2217 l 1.001236,-0.0787 v 2.62466 q 0,0.21455 0.07151,0.26461 0.07867,0.05 0.429099,0.05 v 0.22171 q -0.72947,-0.0215 -0.743774,-0.0215 -0.100129,0 -0.786685,0.0215 z m 0.300371,-4.40543 q 0,-0.14309 0.107275,-0.25746 0.114422,-0.12164 0.271763,-0.12164 0.157332,0 0.264612,0.10728 0.114422,0.10727 0.114422,0.27177 0,0.16454 -0.114422,0.27175 -0.107275,0.10727 -0.264612,0.10727 -0.164494,0 -0.271763,-0.11437 -0.107275,-0.11437 -0.107275,-0.2646 z"
         id="path3065"
         style="stroke-width:0.264583" />
      <path
         d="m 38.573332,151.75199 v -0.94402 q 0,-0.0787 0,-0.10727 0.0071,-0.0286 0.0286,-0.05 0.02145,-0.0215 0.06436,-0.0215 0.05006,0 0.06437,0.0215 0.02146,0.0215 0.03576,0.10018 0.107275,0.49347 0.336128,0.75807 0.236005,0.25746 0.657956,0.25746 0.400493,0 0.60074,-0.17878 0.207399,-0.17879 0.207399,-0.47201 0,-0.52207 -0.743774,-0.65796 -0.429102,-0.0858 -0.607893,-0.14309 -0.178793,-0.0573 -0.33613,-0.18594 -0.307522,-0.25031 -0.307522,-0.6079 0,-0.35758 0.271763,-0.61504 0.271765,-0.26462 0.872506,-0.26462 0.400494,0 0.672259,0.20026 0.07867,-0.0644 0.121584,-0.11437 0.09297,-0.0858 0.143039,-0.0858 0.05722,0 0.06437,0.0358 0.01436,0.0358 0.01436,0.13583 v 0.72231 q 0,0.0787 -0.0071,0.10727 0,0.0285 -0.02145,0.05 -0.02146,0.0135 -0.06437,0.0135 -0.07867,0 -0.08582,-0.0644 -0.05722,-0.86535 -0.836746,-0.86535 -0.42195,0 -0.615045,0.16454 -0.185943,0.15729 -0.185943,0.37905 0,0.12163 0.05722,0.21455 0.05722,0.0929 0.12873,0.15019 0.07867,0.05 0.214551,0.10018 0.14304,0.05 0.228855,0.0715 0.08582,0.0135 0.250308,0.05 0.572135,0.10728 0.815292,0.34328 0.300371,0.30037 0.300371,0.6794 0,0.42196 -0.286067,0.70802 -0.286069,0.28608 -0.865354,0.28608 -0.46486,0 -0.786686,-0.30754 -0.04291,0.0429 -0.07867,0.0787 -0.0286,0.0358 -0.04291,0.05 -0.0071,0.0135 -0.01436,0.0215 0,0.007 -0.0071,0.0135 -0.14304,0.14309 -0.178792,0.14309 -0.05722,0 -0.07151,-0.0358 -0.0071,-0.0358 -0.0071,-0.13583 z"
         id="path3067"
         style="stroke-width:0.264583" />
      <path
         d="m 43.772598,148.98429 v -0.2217 h 0.564983 v -0.82245 q 0,-0.52922 0.343281,-0.82959 0.343281,-0.30753 0.76523,-0.30753 0.278915,0 0.457707,0.15019 0.185945,0.15018 0.185945,0.35044 0,0.13583 -0.08582,0.22884 -0.07867,0.0858 -0.228854,0.0858 -0.14304,0 -0.228853,-0.0858 -0.07867,-0.0929 -0.07867,-0.22169 0,-0.22886 0.21455,-0.30038 -0.107275,-0.05 -0.236005,-0.05 -0.257461,0 -0.457708,0.26462 -0.200247,0.26461 -0.200247,0.708 v 0.8296 h 0.836748 v 0.2217 h -0.815293 v 2.30286 q 0,0.20738 0.08582,0.27175 0.08582,0.0644 0.457707,0.0644 h 0.150186 v 0.22172 q -0.286067,-0.0215 -0.908264,-0.0215 -0.08582,0 -0.221702,0.007 -0.135876,0 -0.314675,0.007 -0.178791,0.007 -0.278916,0.007 v -0.22171 q 0.37904,0 0.464861,-0.0429 0.09297,-0.05 0.09297,-0.27891 v -2.31715 z"
         id="path3069"
         style="stroke-width:0.264583" />
      <path
         d="m 46.15411,151.84496 v -0.2217 q 0.379039,0 0.464859,-0.0429 0.09297,-0.05 0.09297,-0.27891 v -1.92381 q 0,-0.26461 -0.09297,-0.32897 -0.08582,-0.0644 -0.436252,-0.0644 v -0.2217 l 1.001235,-0.0787 v 2.62466 q 0,0.21455 0.07151,0.26461 0.07867,0.05 0.429101,0.05 v 0.22171 q -0.729472,-0.0215 -0.743774,-0.0215 -0.100129,0 -0.786685,0.0215 z m 0.30037,-4.40543 q 0,-0.14309 0.107275,-0.25746 0.114421,-0.12164 0.271765,-0.12164 0.157331,0 0.264612,0.10728 0.114421,0.10727 0.114421,0.27177 0,0.16454 -0.114421,0.27175 -0.107276,0.10727 -0.264612,0.10727 -0.164495,0 -0.271765,-0.11437 -0.107275,-0.11437 -0.107275,-0.2646 z"
         id="path3071"
         style="stroke-width:0.264583" />
      <path
         d="m 48.127976,151.84496 v -0.2217 q 0.37904,0 0.464861,-0.0429 0.09297,-0.05 0.09297,-0.27891 v -1.91665 q 0,-0.26462 -0.09297,-0.32899 -0.09297,-0.0715 -0.464861,-0.0715 v -0.2217 l 1.008388,-0.0787 v 0.75093 q 0.336129,-0.75093 1.05845,-0.75093 0.536374,0 0.750925,0.26461 0.157332,0.1788 0.185945,0.37904 0.03576,0.20024 0.03576,0.71516 v 1.36598 q 0.0071,0.15019 0.121584,0.18595 0.114421,0.0285 0.436252,0.0285 v 0.2217 q -0.72947,-0.0215 -0.800988,-0.0215 -0.05722,0 -0.80814,0.0215 v -0.2217 q 0.37904,0 0.464859,-0.0429 0.09297,-0.05 0.09297,-0.27891 v -1.66635 q 0,-0.36474 -0.114421,-0.57929 -0.107276,-0.21455 -0.414798,-0.21455 -0.371887,0 -0.672258,0.31468 -0.293218,0.30752 -0.293218,0.8296 v 1.31591 q 0,0.22886 0.08582,0.27891 0.09297,0.0429 0.472011,0.0429 v 0.2217 q -0.729472,-0.0215 -0.800989,-0.0215 -0.05722,0 -0.808141,0.0215 z"
         id="path3073"
         style="stroke-width:0.264583" />
      <path
         d="m 52.068555,150.27159 q 0,-0.67225 0.429101,-1.15142 0.436253,-0.47916 1.058448,-0.47916 0.629348,0 0.951174,0.40765 0.328977,0.40764 0.328977,0.99407 0,0.10728 -0.0286,0.12873 -0.0286,0.0215 -0.150185,0.0215 h -1.99532 q 0,0.72947 0.214551,1.07275 0.300371,0.47918 0.80814,0.47918 0.07151,0 0.150185,-0.0135 0.08582,-0.0135 0.257461,-0.0715 0.17164,-0.0644 0.321826,-0.22886 0.150185,-0.16454 0.236005,-0.42195 0.02145,-0.10018 0.09297,-0.10018 0.09297,0 0.09297,0.0858 0,0.0644 -0.07151,0.2074 -0.06437,0.13583 -0.193096,0.30752 -0.12873,0.16454 -0.379038,0.29322 -0.25031,0.12164 -0.550681,0.12164 -0.629348,0 -1.101357,-0.47201 -0.472012,-0.47916 -0.472012,-1.18003 z m 0.60074,-0.22886 h 1.69495 q 0,-0.15018 -0.0286,-0.31466 -0.02146,-0.17164 -0.100129,-0.4005 -0.07151,-0.236 -0.25031,-0.37904 -0.17164,-0.15019 -0.429101,-0.15019 -0.114421,0 -0.243157,0.05 -0.121584,0.05 -0.271763,0.17164 -0.150185,0.11437 -0.257461,0.38619 -0.100129,0.26462 -0.114421,0.6365 z"
         id="path3075"
         style="stroke-width:0.264583" />
      <path
         d="m 22.732351,176.18842 q 0,-0.60789 0.715166,-0.92972 0.429101,-0.2074 1.31591,-0.25745 v -0.26463 q 0,-0.44339 -0.236006,-0.67939 -0.228853,-0.23601 -0.522072,-0.23601 -0.522073,0 -0.772381,0.32897 0.214549,0.007 0.286067,0.11437 0.07867,0.10728 0.07867,0.21456 0,0.14309 -0.09297,0.236 -0.08582,0.0929 -0.236006,0.0929 -0.143039,0 -0.236005,-0.0858 -0.09297,-0.0929 -0.09297,-0.25032 0,-0.35042 0.314675,-0.57928 0.314673,-0.22886 0.76523,-0.22886 0.586437,0 0.97978,0.39335 0.121584,0.12164 0.178791,0.27892 0.06436,0.15728 0.07151,0.2646 0.0071,0.10018 0.0071,0.30037 v 1.43035 q 0,0.0429 0.01436,0.11437 0.01436,0.0644 0.07867,0.15728 0.06436,0.0858 0.17164,0.0858 0.257461,0 0.257461,-0.4577 v -0.4005 h 0.178792 v 0.4005 q 0,0.37905 -0.200247,0.52923 -0.200247,0.15019 -0.386191,0.15019 -0.236006,0 -0.386191,-0.17164 -0.150186,-0.17881 -0.171641,-0.41481 -0.107275,0.27177 -0.357583,0.45056 -0.243157,0.17164 -0.579287,0.17164 -0.257461,0 -0.500617,-0.0644 -0.243157,-0.0644 -0.443404,-0.24315 -0.200247,-0.17879 -0.200247,-0.45056 z m 0.550678,-0.007 q 0,0.2646 0.185943,0.43624 0.193096,0.17165 0.457709,0.17165 0.300369,0 0.564983,-0.22886 0.271763,-0.23601 0.271763,-0.69371 v -0.71517 q -0.793836,0.0286 -1.137117,0.34329 -0.343281,0.31466 -0.343281,0.68656 z"
         id="path5190"
         style="fill:#cccccc;stroke-width:0.264583" />
      <path
         d="m 26.208067,172.20494 v -0.2217 l 1.029842,-0.0787 v 2.26707 q 0.414797,-0.46486 0.97978,-0.46486 0.615046,0 1.065602,0.47201 0.450555,0.47201 0.450555,1.14428 0,0.6794 -0.47201,1.15141 -0.472011,0.47201 -1.122814,0.47201 -0.593591,0 -0.93687,-0.52207 -0.25031,0.43625 -0.257461,0.44341 h -0.178792 v -4.2624 q 0,-0.26461 -0.09297,-0.32898 -0.09297,-0.0715 -0.464859,-0.0715 z m 1.051297,3.8476 q 0,0.15018 0.100129,0.30037 0.286067,0.43625 0.750927,0.43625 0.500618,0 0.80814,-0.45771 0.221702,-0.34328 0.221702,-1.01555 0,-0.6651 -0.2074,-0.99407 -0.286067,-0.4577 -0.750925,-0.4577 -0.522073,0 -0.843899,0.4577 -0.07867,0.11437 -0.07867,0.25746 z"
         id="path5192"
         style="fill:#cccccc;stroke-width:0.264583" />
      <path
         d="m 30.870964,176.47448 q -0.450555,-0.47201 -0.450555,-1.15141 0,-0.67941 0.443404,-1.16573 0.450556,-0.49347 1.10851,-0.49347 0.436253,0 0.76523,0.20741 0.328979,0.2074 0.328979,0.55782 0,0.15729 -0.09297,0.25032 -0.09297,0.0858 -0.236005,0.0858 -0.150186,0 -0.243157,-0.0929 -0.08582,-0.0929 -0.08582,-0.236 0,-0.0644 0.02146,-0.12164 0.02145,-0.0644 0.100129,-0.12873 0.07867,-0.0715 0.214551,-0.0787 -0.257461,-0.26461 -0.76523,-0.26461 -0.364736,0 -0.665107,0.34328 -0.300371,0.34328 -0.300371,1.12281 0,0.40764 0.100129,0.70801 0.10013,0.30037 0.264612,0.45771 0.164495,0.15018 0.321826,0.22171 0.164495,0.0715 0.321826,0.0715 0.700865,0 0.93687,-0.75093 0.02145,-0.0715 0.09297,-0.0715 0.09297,0 0.09297,0.0715 0,0.0358 -0.0286,0.12873 -0.0286,0.0858 -0.114422,0.22886 -0.08582,0.14309 -0.21455,0.27176 -0.121585,0.12163 -0.343281,0.21455 -0.214551,0.0858 -0.486314,0.0858 -0.629348,0 -1.087057,-0.47201 z"
         id="path5194"
         style="fill:#cccccc;stroke-width:0.264583" />
      <path
         d="m 33.595757,175.33021 q 0,-0.67941 0.472012,-1.15142 0.479162,-0.47201 1.122814,-0.47201 0.543528,0 0.901111,0.44341 v -1.54476 q 0,-0.26461 -0.09297,-0.32897 -0.09297,-0.0715 -0.464859,-0.0715 v -0.2217 l 1.029841,-0.0787 v 4.34106 q 0,0.26461 0.09297,0.33612 0.09297,0.0644 0.46486,0.0644 v 0.22171 l -1.051298,0.0787 v -0.47202 q -0.371887,0.47202 -0.958325,0.47202 -0.615044,0 -1.065601,-0.47202 -0.450556,-0.47201 -0.450556,-1.14426 z m 0.593591,0.007 q 0,0.66511 0.207398,0.9941 0.286067,0.4577 0.750927,0.4577 0.529224,0 0.843898,-0.50061 0.07867,-0.12164 0.07867,-0.26463 v -1.46608 q 0,-0.14309 -0.07867,-0.26461 -0.293219,-0.4291 -0.772382,-0.4291 -0.500617,0 -0.808139,0.4577 -0.221702,0.34328 -0.221702,1.01553 z"
         id="path5196"
         style="fill:#cccccc;stroke-width:0.264583" />
      <path
         d="m 37.522034,175.29445 q 0,-0.67225 0.429101,-1.1514 0.436252,-0.47918 1.058449,-0.47918 0.629348,0 0.951173,0.40765 0.328978,0.40764 0.328978,0.99409 0,0.10727 -0.0286,0.12873 -0.0286,0.0214 -0.150185,0.0214 h -1.99532 q 0,0.72947 0.21455,1.07275 0.300371,0.47916 0.80814,0.47916 0.07151,0 0.150185,-0.0135 0.08582,-0.0135 0.257461,-0.0715 0.171641,-0.0644 0.321826,-0.22886 0.150185,-0.16455 0.236006,-0.42194 0.02146,-0.10018 0.09297,-0.10018 0.09297,0 0.09297,0.0858 0,0.0644 -0.07151,0.2074 -0.06436,0.13583 -0.193096,0.30752 -0.12873,0.16455 -0.379038,0.29322 -0.25031,0.12164 -0.55068,0.12164 -0.629348,0 -1.101358,-0.47201 -0.472011,-0.47916 -0.472011,-1.18003 z m 0.600742,-0.22884 h 1.694948 q 0,-0.15019 -0.0286,-0.31468 -0.02145,-0.17164 -0.100129,-0.4005 -0.07151,-0.236 -0.25031,-0.37902 -0.171641,-0.15019 -0.4291,-0.15019 -0.114421,0 -0.243158,0.05 -0.121585,0.05 -0.271763,0.17164 -0.150186,0.11437 -0.257461,0.38618 -0.100129,0.26461 -0.114421,0.63651 z"
         id="path5198"
         style="fill:#000000;stroke-width:0.264583" />
      <path
         d="m 40.733141,174.00715 v -0.22169 h 0.564982 v -0.82244 q 0,-0.52923 0.343281,-0.82959 0.343281,-0.30753 0.76523,-0.30753 0.278916,0 0.457707,0.15019 0.185945,0.15019 0.185945,0.35043 0,0.13588 -0.08582,0.22886 -0.07868,0.0858 -0.228855,0.0858 -0.143039,0 -0.228853,-0.0858 -0.07867,-0.0929 -0.07867,-0.2217 0,-0.22886 0.21455,-0.30038 -0.107275,-0.0501 -0.236005,-0.0501 -0.257461,0 -0.457708,0.26461 -0.200246,0.26462 -0.200246,0.70801 v 0.82961 h 0.836747 v 0.22169 H 41.77013 v 2.30285 q 0,0.20738 0.08582,0.27175 0.08582,0.0644 0.457707,0.0644 h 0.150186 v 0.22172 q -0.286067,-0.0215 -0.908264,-0.0215 -0.08582,0 -0.221702,0.007 -0.135876,0 -0.314675,0.007 -0.178791,0.007 -0.278915,0.007 v -0.22172 q 0.37904,0 0.46486,-0.0429 0.09297,-0.05 0.09297,-0.27891 v -2.31714 z"
         id="path5200"
         style="fill:#cccccc;stroke-width:0.264583" />
      <path
         d="m 42.878647,177.43281 q 0,-0.22886 0.17164,-0.4291 0.178792,-0.20024 0.486314,-0.28606 -0.314673,-0.20026 -0.314673,-0.63651 0,-0.33614 0.221702,-0.5936 -0.33613,-0.27891 -0.33613,-0.73661 0,-0.42195 0.33613,-0.72947 0.336128,-0.31468 0.822443,-0.31468 0.429102,0 0.758079,0.25746 0.343281,-0.33611 0.758078,-0.33611 0.185943,0 0.271763,0.11437 0.09297,0.11437 0.09297,0.236 0,0.10728 -0.07151,0.16455 -0.06437,0.05 -0.135876,0.05 -0.08582,0 -0.150186,-0.0573 -0.05722,-0.0573 -0.05722,-0.15018 0,-0.15019 0.114421,-0.1931 -0.02145,-0.007 -0.07151,-0.007 -0.350432,0 -0.64365,0.27891 0.293218,0.27177 0.293218,0.6937 0,0.42195 -0.336128,0.73663 -0.33613,0.30752 -0.822444,0.30752 -0.400495,0 -0.708017,-0.2217 -0.121584,0.14309 -0.121584,0.33612 0,0.17881 0.107275,0.32183 0.107275,0.13582 0.271765,0.15728 0.05006,0.007 0.536376,0.007 0.286067,0 0.443404,0.007 0.157331,0.007 0.37904,0.0573 0.228853,0.0429 0.407645,0.13583 0.46486,0.25746 0.46486,0.81529 0,0.40765 -0.472012,0.66511 -0.464858,0.25746 -1.115661,0.25746 -0.657956,0 -1.122815,-0.26461 -0.457707,-0.25746 -0.457707,-0.64365 z m 0.371887,0 q 0,0.29322 0.343281,0.51492 0.350432,0.22886 0.872505,0.22886 0.514922,0 0.858203,-0.22171 0.350432,-0.2217 0.350432,-0.52207 0,-0.21455 -0.121585,-0.35043 -0.121584,-0.13582 -0.371887,-0.19309 -0.25031,-0.05 -0.429101,-0.0573 -0.171641,-0.0135 -0.493467,-0.0135 h -0.421943 q -0.243157,0.0135 -0.414797,0.1931 -0.171641,0.1788 -0.171641,0.42195 z m 0.393342,-2.67473 q 0,0.87965 0.622197,0.87965 0.314673,0 0.507769,-0.28606 0.114421,-0.1931 0.114421,-0.60074 0,-0.87965 -0.622195,-0.87965 -0.314675,0 -0.50777,0.28606 -0.114422,0.19309 -0.114422,0.60074 z"
         id="path5202"
         style="fill:#cccccc;stroke-width:0.264583" />
      <path
         d="m 46.483094,176.86783 v -0.22171 q 0.37904,0 0.464859,-0.0429 0.09297,-0.05 0.09297,-0.27892 v -3.71886 q 0,-0.26461 -0.09297,-0.32897 -0.09297,-0.0715 -0.464859,-0.0715 v -0.2217 l 1.029843,-0.0787 v 2.48877 h 0.0071 q 0.114421,-0.25745 0.371887,-0.47201 0.257461,-0.21455 0.657954,-0.21455 0.536377,0 0.750927,0.26463 0.157332,0.17878 0.185945,0.37902 0.03576,0.20026 0.03576,0.71518 v 1.36596 q 0.0071,0.15018 0.121584,0.18595 0.114422,0.0285 0.436253,0.0285 v 0.22171 q -0.729473,-0.0214 -0.800989,-0.0214 -0.05722,0 -0.80814,0.0214 v -0.22171 q 0.379039,0 0.464859,-0.0429 0.09297,-0.05 0.09297,-0.27892 v -1.66633 q 0,-0.36473 -0.114421,-0.57928 -0.107275,-0.21455 -0.414797,-0.21455 -0.371888,0 -0.672258,0.31466 -0.293219,0.30753 -0.293219,0.8296 v 1.3159 q 0,0.22886 0.08582,0.27892 0.09297,0.0429 0.472011,0.0429 v 0.22171 q -0.72947,-0.0214 -0.800988,-0.0214 -0.05722,0 -0.80814,0.0214 z"
         id="path5204"
         style="fill:#000000;stroke-width:0.264583" />
      <path
         d="m 50.459431,176.86783 v -0.22171 q 0.37904,0 0.46486,-0.0429 0.09297,-0.05 0.09297,-0.27892 v -1.92379 q 0,-0.26461 -0.09297,-0.32898 -0.08582,-0.0644 -0.436254,-0.0644 v -0.22169 l 1.001237,-0.0787 v 2.62467 q 0,0.21455 0.07151,0.26461 0.07867,0.05 0.429101,0.05 v 0.22171 q -0.729472,-0.0215 -0.743776,-0.0215 -0.100129,0 -0.786685,0.0215 z m 0.30037,-4.40543 q 0,-0.14303 0.107276,-0.25746 0.114421,-0.12158 0.271763,-0.12158 0.157331,0 0.264613,0.10727 0.114422,0.10728 0.114422,0.27176 0,0.16455 -0.114422,0.27177 -0.107275,0.10728 -0.264613,0.10728 -0.164495,0 -0.271763,-0.11438 -0.107276,-0.11437 -0.107276,-0.26462 z"
         id="path5206"
         style="fill:#000000;stroke-width:0.264583" />
      <path
         d="m 53.055495,172.73417 q -0.107275,-0.11438 -0.107275,-0.27177 0,-0.15734 0.107275,-0.26461 0.114421,-0.11442 0.271763,-0.11442 0.157331,0 0.264612,0.11442 0.114421,0.10728 0.114421,0.26461 0,0.15728 -0.114421,0.27177 -0.107275,0.10727 -0.264612,0.10727 -0.157332,0 -0.271763,-0.10727 z m -1.137118,5.02761 q 0,-0.14309 0.09297,-0.236 0.08582,-0.0929 0.236006,-0.0929 0.150185,0 0.236005,0.0929 0.09297,0.0929 0.09297,0.236 0,0.12873 -0.07867,0.20741 -0.07151,0.0858 -0.17164,0.11437 0.185944,0.0929 0.386191,0.0929 0.164494,0 0.271763,-0.10018 0.114421,-0.0929 0.164494,-0.25746 0.05006,-0.15728 0.06437,-0.29322 0.02145,-0.13583 0.02145,-0.28607 v -2.83206 q 0,-0.2646 -0.107276,-0.32897 -0.100129,-0.0715 -0.50777,-0.0715 v -0.22169 l 1.087057,-0.0787 v 3.51862 q 0,0.47918 -0.286069,0.79384 -0.286066,0.31468 -0.693713,0.31468 -0.328977,0 -0.564982,-0.15728 -0.243157,-0.15019 -0.243157,-0.41481 z"
         id="path5208"
         style="fill:#cccccc;stroke-width:0.264583" />
      <path
         d="m 54.585959,176.86783 v -0.22171 q 0.379038,0 0.464859,-0.0429 0.09297,-0.05 0.09297,-0.27892 v -3.71886 q 0,-0.26461 -0.09297,-0.32897 -0.09297,-0.0715 -0.464859,-0.0715 v -0.2217 l 1.029841,-0.0787 v 3.43279 l 1.008388,-0.87249 q 0.157332,-0.13583 0.157332,-0.27892 0,-0.16454 -0.2074,-0.1788 v -0.22169 q 0.300371,0.0215 0.800989,0.0215 0.29322,0 0.500617,-0.0215 v 0.22169 q -0.450554,0.0215 -0.901111,0.38619 -0.100129,0.0787 -0.343281,0.28608 -0.236005,0.20739 -0.236005,0.22884 0,0.007 0.0071,0.0285 0.0071,0.0135 0.02145,0.0285 0.01436,0.0135 0.01436,0.0215 l 0.908264,1.28015 q 0.185944,0.25746 0.321826,0.32183 0.135876,0.0573 0.371887,0.0573 v 0.22171 q -0.307522,-0.0214 -0.622197,-0.0214 -0.171641,0 -0.772381,0.0214 v -0.22171 q 0.257461,0 0.257461,-0.16455 0,-0.11437 -0.579287,-0.91542 -0.04291,-0.0573 -0.135876,-0.17879 -0.08582,-0.12873 -0.135877,-0.19309 l -0.457707,0.39334 v 0.73661 q 0,0.22886 0.08582,0.27892 0.09297,0.0429 0.472012,0.0429 v 0.22171 q -0.429102,-0.0215 -0.786685,-0.0215 -0.07151,0 -0.779533,0.0215 z"
         id="path5210"
         style="fill:#cccccc;stroke-width:0.264583" />
      <path
         d="m 58.390656,176.86783 v -0.22171 q 0.379039,0 0.464859,-0.0429 0.09297,-0.05 0.09297,-0.27892 v -3.71886 q 0,-0.26461 -0.09297,-0.32897 -0.09297,-0.0715 -0.464859,-0.0715 v -0.2217 l 1.029842,-0.0787 v 4.41972 q 0,0.22886 0.08582,0.27892 0.09297,0.0429 0.472011,0.0429 v 0.22171 q -0.08582,0 -0.271763,-0.007 -0.178793,-0.007 -0.314674,-0.007 -0.128731,-0.007 -0.207398,-0.007 -0.08582,0 -0.793838,0.0214 z"
         id="path5212"
         style="fill:#cccccc;stroke-width:0.264583" />
      <path
         d="m 60.364524,176.86783 v -0.22171 q 0.379038,0 0.464859,-0.0429 0.09297,-0.05 0.09297,-0.27892 v -1.91664 q 0,-0.2646 -0.09297,-0.32897 -0.09297,-0.0715 -0.464859,-0.0715 v -0.22169 l 1.008386,-0.0787 v 0.75092 q 0.33613,-0.75092 1.058449,-0.75092 0.836748,0 0.951174,0.70087 0.121585,-0.27177 0.379039,-0.48632 0.257461,-0.21455 0.657956,-0.21455 0.536376,0 0.750925,0.26462 0.157332,0.17879 0.185945,0.37903 0.03576,0.20026 0.03576,0.71517 v 1.36596 q 0.0071,0.15019 0.121584,0.18595 0.114421,0.0285 0.436252,0.0285 v 0.22172 q -0.72947,-0.0215 -0.800988,-0.0215 -0.05722,0 -0.80814,0.0215 v -0.22172 q 0.37904,0 0.464861,-0.0429 0.09297,-0.05 0.09297,-0.27891 v -1.66633 q 0,-0.36474 -0.114422,-0.57928 -0.107275,-0.21455 -0.414799,-0.21455 -0.371887,0 -0.672258,0.31466 -0.293218,0.30753 -0.293218,0.8296 v 1.3159 q 0,0.22886 0.08582,0.27891 0.09297,0.0429 0.472011,0.0429 v 0.22172 q -0.729472,-0.0215 -0.800989,-0.0215 -0.05722,0 -0.808141,0.0215 v -0.22172 q 0.37904,0 0.46486,-0.0429 0.09297,-0.05 0.09297,-0.27891 v -1.66633 q 0,-0.36474 -0.114422,-0.57928 -0.107275,-0.21455 -0.414797,-0.21455 -0.371887,0 -0.672258,0.31466 -0.29322,0.30753 -0.29322,0.8296 v 1.3159 q 0,0.22886 0.08582,0.27891 0.09297,0.0429 0.472012,0.0429 v 0.22172 q -0.729472,-0.0215 -0.800989,-0.0215 -0.05722,0 -0.808139,0.0215 z"
         id="path5214"
         style="fill:#cccccc;stroke-width:0.264583" />
      <path
         d="m 66.321874,176.86783 v -0.22171 q 0.37904,0 0.46486,-0.0429 0.09297,-0.05 0.09297,-0.27892 v -1.91664 q 0,-0.2646 -0.09297,-0.32897 -0.09297,-0.0715 -0.46486,-0.0715 v -0.22169 l 1.008388,-0.0787 v 0.75092 q 0.336128,-0.75092 1.058447,-0.75092 0.536377,0 0.750928,0.26462 0.157331,0.17879 0.185944,0.37903 0.03576,0.20026 0.03576,0.71517 v 1.36596 q 0.0071,0.15019 0.121584,0.18595 0.114422,0.0285 0.436253,0.0285 v 0.22172 q -0.729472,-0.0215 -0.800989,-0.0215 -0.05722,0 -0.808139,0.0215 v -0.22172 q 0.379038,0 0.464858,-0.0429 0.09297,-0.05 0.09297,-0.27891 v -1.66633 q 0,-0.36474 -0.114422,-0.57928 -0.107275,-0.21455 -0.414797,-0.21455 -0.371887,0 -0.672258,0.31466 -0.293218,0.30753 -0.293218,0.8296 v 1.3159 q 0,0.22886 0.08582,0.27891 0.09297,0.0429 0.47201,0.0429 v 0.22172 q -0.729471,-0.0215 -0.800989,-0.0215 -0.05722,0 -0.808139,0.0215 z"
         id="path5216"
         style="fill:#000000;stroke-width:0.264583" />
      <path
         d="m 70.734466,176.48164 q -0.47201,-0.46487 -0.47201,-1.14428 0,-0.6794 0.457708,-1.17286 0.464858,-0.50063 1.129965,-0.50063 0.650803,0 1.115662,0.49347 0.46486,0.49346 0.46486,1.18002 0,0.67227 -0.472011,1.14428 -0.464861,0.46485 -1.115664,0.46485 -0.636499,0 -1.10851,-0.46485 z m 0.121584,-1.20148 q 0,0.6937 0.178792,1.00838 0.278916,0.47916 0.815292,0.47916 0.264612,0 0.486314,-0.14309 0.221702,-0.14309 0.343281,-0.38619 0.157331,-0.31466 0.157331,-0.95831 0,-0.68656 -0.185942,-0.9941 -0.278916,-0.46484 -0.808142,-0.46484 -0.228853,0 -0.457707,0.12164 -0.221702,0.12163 -0.357583,0.35758 -0.171641,0.31468 -0.171641,0.97978 z"
         id="path5218"
         style="fill:#cccccc;stroke-width:0.264583" />
      <path
         d="m 73.838296,178.03355 q 0.37904,0 0.46486,-0.05 0.09297,-0.0429 0.09297,-0.27177 v -3.34699 q 0,-0.236 -0.09297,-0.29322 -0.08582,-0.0644 -0.46486,-0.0644 v -0.2217 l 1.029843,-0.0787 v 0.47201 q 0.429101,-0.47201 1.001235,-0.47201 0.607893,0 1.051298,0.47201 0.443403,0.47201 0.443403,1.14428 0,0.6794 -0.472011,1.15141 -0.472011,0.47201 -1.122814,0.47201 -0.357584,0 -0.600741,-0.17879 -0.236005,-0.18595 -0.278915,-0.32182 v 0.0644 1.20148 q 0,0.22886 0.08582,0.27177 0.09297,0.05 0.472011,0.05 v 0.2217 q -0.750927,-0.0215 -0.808141,-0.0215 -0.07151,0 -0.800988,0.0215 z m 1.051298,-1.98101 q 0,0.10727 0.01436,0.15018 0.01436,0.0358 0.08582,0.15019 0.286068,0.43625 0.750927,0.43625 0.407646,0 0.715168,-0.4148 0.314675,-0.42195 0.314675,-1.05129 0,-0.60074 -0.286069,-1.01555 -0.278914,-0.42193 -0.672258,-0.42193 -0.278914,0 -0.522073,0.15018 -0.243156,0.15019 -0.400493,0.42194 z"
         id="path5220"
         style="fill:#cccccc;stroke-width:0.264583" />
      <path
         d="m 78.050639,175.33021 q 0,-0.68655 0.472012,-1.15142 0.472011,-0.47201 1.10851,-0.47201 0.264612,0 0.479163,0.12873 0.221701,0.12873 0.314674,0.25747 0.10013,0.12873 0.164495,0.26461 l 0.271765,-0.65081 h 0.157331 v 4.00494 q 0,0.22886 0.08582,0.27177 0.09297,0.05 0.472012,0.05 v 0.2217 q -0.750928,-0.0215 -0.80814,-0.0215 -0.07151,0 -0.800988,0.0215 v -0.2217 q 0.379038,0 0.464858,-0.05 0.09297,-0.0429 0.09297,-0.27177 v -1.28015 q -0.393343,0.51492 -0.951174,0.51492 -0.622196,0 -1.072752,-0.47201 -0.450556,-0.47916 -0.450556,-1.14427 z m 0.593591,0 q 0,0.61505 0.278914,1.03699 0.286069,0.42196 0.679411,0.42196 0.386191,0 0.657954,-0.29323 0.286067,-0.31466 0.286067,-0.60074 v -1.00838 q 0,-0.33612 -0.243157,-0.66511 -0.236006,-0.33611 -0.629348,-0.33611 -0.407646,0 -0.722319,0.41478 -0.307522,0.40765 -0.307522,1.02984 z"
         id="path5222"
         style="fill:#cccccc;stroke-width:0.264583" />
      <path
         d="m 81.776666,176.86783 v -0.22171 q 0.379038,0 0.464858,-0.0429 0.09297,-0.05 0.09297,-0.27892 v -1.91664 q 0,-0.2646 -0.09297,-0.32897 -0.09297,-0.0715 -0.464858,-0.0715 v -0.22169 l 0.994084,-0.0787 v 0.78669 q 0.100129,-0.30752 0.314673,-0.54352 0.214551,-0.24317 0.564983,-0.24317 0.228854,0 0.37904,0.12873 0.150185,0.12873 0.150185,0.30754 0,0.15728 -0.100129,0.236 -0.09297,0.0787 -0.207398,0.0787 -0.12873,0 -0.221703,-0.0787 -0.08582,-0.0858 -0.08582,-0.22886 0,-0.0858 0.03576,-0.15018 0.04291,-0.0715 0.07151,-0.0929 0.03576,-0.0285 0.05722,-0.0358 -0.01436,-0.007 -0.07867,-0.007 -0.393343,0 -0.622196,0.39333 -0.221703,0.39334 -0.221703,0.95116 v 1.10137 q 0,0.20739 0.08582,0.27176 0.08582,0.0644 0.457708,0.0644 h 0.150185 v 0.22172 q -0.286067,-0.0215 -0.908264,-0.0215 -0.08582,0 -0.221701,0.007 -0.135877,0 -0.314674,0.007 -0.178791,0.007 -0.278915,0.007 z"
         id="path5224"
         style="fill:#cccccc;stroke-width:0.264583" />
      <path
         d="m 84.608738,176.77485 v -0.94402 q 0,-0.0787 0,-0.10728 0.0071,-0.0285 0.0286,-0.05 0.02146,-0.0214 0.06437,-0.0214 0.05006,0 0.06436,0.0214 0.02146,0.0215 0.03576,0.10018 0.107275,0.49347 0.336128,0.75808 0.236006,0.25746 0.657956,0.25746 0.400494,0 0.60074,-0.17879 0.2074,-0.1788 0.2074,-0.47201 0,-0.52208 -0.743775,-0.65796 -0.429101,-0.0858 -0.607893,-0.14309 -0.178793,-0.0573 -0.336129,-0.18593 -0.307522,-0.25031 -0.307522,-0.6079 0,-0.35758 0.271763,-0.61503 0.271764,-0.26463 0.872506,-0.26463 0.400493,0 0.672258,0.20026 0.07867,-0.0644 0.121584,-0.11437 0.09297,-0.0858 0.14304,-0.0858 0.05722,0 0.06437,0.0358 0.01436,0.0358 0.01436,0.13582 v 0.72232 q 0,0.0787 -0.0071,0.10728 0,0.0285 -0.02145,0.05 -0.02146,0.0135 -0.06437,0.0135 -0.07867,0 -0.08582,-0.0644 -0.05722,-0.86534 -0.836746,-0.86534 -0.42195,0 -0.615046,0.16455 -0.185942,0.15728 -0.185942,0.37904 0,0.12163 0.05722,0.21455 0.05722,0.0929 0.12873,0.15018 0.07867,0.05 0.214551,0.10018 0.143039,0.05 0.228854,0.0715 0.08582,0.0135 0.250308,0.05 0.572136,0.10727 0.815293,0.34327 0.300371,0.30037 0.300371,0.67942 0,0.42196 -0.286069,0.70802 -0.286067,0.28606 -0.865352,0.28606 -0.46486,0 -0.786686,-0.30752 -0.04291,0.0429 -0.07867,0.0787 -0.0286,0.0358 -0.04291,0.05 -0.0071,0.0135 -0.01436,0.0215 0,0.007 -0.0071,0.0135 -0.143039,0.14309 -0.178793,0.14309 -0.05722,0 -0.07151,-0.0358 -0.0071,-0.0358 -0.0071,-0.13583 z"
         id="path5226"
         style="fill:#000000;stroke-width:0.264583" />
      <path
         d="m 87.326368,174.00715 v -0.15728 q 0.328977,-0.0135 0.543527,-0.24315 0.221702,-0.236 0.29322,-0.52208 0.07867,-0.28606 0.08582,-0.61503 h 0.178792 v 1.3159 h 1.02269 v 0.2217 h -1.02269 v 1.98816 q 0,0.77238 0.479163,0.77238 0.207397,0 0.343281,-0.2074 0.135876,-0.21455 0.135876,-0.59358 v -0.39335 h 0.178792 v 0.40764 q 0,0.38619 -0.178792,0.67942 -0.178792,0.28606 -0.529224,0.28606 -0.12873,0 -0.257461,-0.0358 -0.12873,-0.0285 -0.293219,-0.11437 -0.164495,-0.0858 -0.271763,-0.2932 -0.10013,-0.21455 -0.10013,-0.52209 v -1.97385 z"
         id="path5228"
         style="fill:#000000;stroke-width:0.264583" />
      <path
         d="m 90.194198,174.00715 v -0.22169 l 1.051299,-0.0787 v 2.37436 q 0,0.17164 0.01436,0.27177 0.01436,0.10018 0.07151,0.21455 0.05722,0.11437 0.193095,0.17164 0.135877,0.05 0.350432,0.05 0.386191,0 0.622197,-0.31468 0.243157,-0.32183 0.243157,-0.79384 v -1.27299 q 0,-0.2646 -0.09297,-0.32897 -0.09297,-0.0715 -0.464861,-0.0715 v -0.2217 l 1.051298,-0.0787 v 2.53885 q 0,0.26461 0.09297,0.33612 0.09297,0.0644 0.464858,0.0644 v 0.22172 l -1.029841,0.0787 v -0.64365 q -0.300371,0.64365 -0.922568,0.64365 -0.314673,0 -0.529224,-0.0787 -0.21455,-0.0787 -0.321825,-0.17881 -0.107276,-0.10018 -0.164495,-0.2932 -0.05722,-0.1931 -0.06437,-0.30754 -0.0071,-0.12163 -0.0071,-0.35043 v -1.07274 q 0,-0.48632 -0.07151,-0.57214 -0.07151,-0.0858 -0.486315,-0.0858 z"
         id="path5230"
         style="fill:#cccccc;stroke-width:0.264583" />
      <path
         d="m 94.070412,174.00715 v -0.22169 q 0.321826,0.0215 0.693713,0.0215 0.135877,0 0.779534,-0.0215 v 0.22169 q -0.407646,0 -0.407646,0.18595 0,0.0285 0.04291,0.12163 l 0.800988,1.99532 0.729472,-1.82368 q 0.04291,-0.12163 0.04291,-0.17164 0,-0.12163 -0.08582,-0.2074 -0.07867,-0.0929 -0.257461,-0.10018 v -0.22169 q 0.364737,0.0215 0.622196,0.0215 0.293219,0 0.536376,-0.0215 v 0.22169 q -0.21455,0 -0.364736,0.10018 -0.150185,0.0929 -0.200247,0.17879 -0.04291,0.0787 -0.09297,0.20025 l -0.93687,2.32429 q -0.05722,0.13583 -0.150185,0.13583 -0.06437,0 -0.09297,-0.0285 -0.02146,-0.0215 -0.05722,-0.10728 l -1.029843,-2.53884 q -0.07151,-0.17879 -0.164494,-0.2217 -0.08582,-0.0429 -0.407646,-0.0429 z"
         id="path5232"
         style="fill:#cccccc;stroke-width:0.264583" />
      <path
         d="m 97.832196,174.00715 v -0.22169 q 0.386191,0.0215 0.665107,0.0215 0.135877,0 0.779534,-0.0215 v 0.22169 q -0.421951,0 -0.421951,0.1931 0,0.0429 0.03576,0.12873 l 0.67941,1.90949 0.615054,-1.73069 q -0.12874,-0.35044 -0.1645,-0.39335 -0.08582,-0.10728 -0.450559,-0.10728 v -0.22169 q 0.321826,0.0215 0.636509,0.0215 0.12158,0 0.74377,-0.0215 v 0.22169 q -0.42195,0 -0.42195,0.1931 0,0.0285 0.0358,0.13582 l 0.70801,1.99532 0.65081,-1.83084 q 0.0358,-0.0929 0.0358,-0.15019 0,-0.15728 -0.11442,-0.24314 -0.10728,-0.0929 -0.30037,-0.10018 v -0.2217 q 0.40764,0.0214 0.6651,0.0214 0.28607,0 0.52208,-0.0214 v 0.2217 q -0.44341,0.0135 -0.60074,0.45771 l -0.83675,2.34574 q -0.0787,0.12873 -0.14304,0.13583 -0.093,0 -0.14304,-0.13583 l -0.72947,-2.03108 -0.722325,2.02394 q -0.0286,0.0858 -0.05722,0.11437 -0.02146,0.0285 -0.08582,0.0285 -0.06436,0 -0.09297,-0.0358 -0.0286,-0.0358 -0.05722,-0.12163 l -0.901111,-2.53169 q -0.06436,-0.16455 -0.157331,-0.2074 -0.09297,-0.0429 -0.371887,-0.0429 z"
         id="path5234"
         style="fill:#cccccc;stroke-width:0.264583" />
      <path
         d="m 102.9528,176.86783 v -0.22171 q 0.55783,0 0.91542,-0.4291 0,0 0.67226,-0.85104 l -0.70802,-0.92257 q -0.25031,-0.32182 -0.36474,-0.37904 -0.10727,-0.0573 -0.47916,-0.0573 v -0.22169 q 0.29322,0.0214 0.67941,0.0214 0.21455,0 0.77238,-0.0214 v 0.22169 q -0.25031,0.0135 -0.25031,0.1788 0,0.0573 0.0644,0.12873 l 0.55783,0.72231 0.4434,-0.55783 q 0.10728,-0.12873 0.10728,-0.2503 0,-0.20025 -0.2074,-0.22171 v -0.22169 q 0.27892,0.0214 0.68656,0.0214 0.30752,0 0.58644,-0.0214 v 0.22169 q -0.54353,0.0135 -0.85105,0.3719 -0.13588,0.15018 -0.65796,0.80812 l 0.95833,1.23725 q 0.11442,0.15019 0.24316,0.18595 0.12873,0.0358 0.43625,0.0358 v 0.22172 q -0.32183,-0.0215 -0.68656,-0.0215 -0.12873,0 -0.77238,0.0215 v -0.22172 q 0.12873,-0.007 0.19309,-0.0644 0.0644,-0.0573 0.0644,-0.11437 0,-0.0285 -0.15019,-0.23601 l -0.54353,-0.71516 q -0.54352,0.64365 -0.61504,0.79384 -0.0286,0.0644 -0.0286,0.11437 0,0.19309 0.2074,0.22169 v 0.22172 q -0.51492,-0.0215 -0.67941,-0.0215 -0.31468,0 -0.59359,0.0215 z"
         id="path5236"
         style="fill:#cccccc;stroke-width:0.264583" />
      <path
         d="m 106.77181,177.75463 q 0,-0.15018 0.0858,-0.22885 0.093,-0.0787 0.21455,-0.0787 0.12873,0 0.21455,0.0787 0.0858,0.0858 0.0858,0.22171 0,0.26461 -0.27892,0.30037 0.13588,0.12873 0.33613,0.12873 0.21455,0 0.38619,-0.15728 0.17164,-0.15728 0.24316,-0.30752 0.0787,-0.15018 0.18594,-0.42195 0.10013,-0.21455 0.17879,-0.42194 l -1.07275,-2.61037 q -0.0715,-0.17163 -0.17879,-0.2074 -0.10727,-0.0429 -0.40049,-0.0429 v -0.22169 q 0.32182,0.0214 0.69371,0.0214 0.2217,0 0.77953,-0.0214 v 0.22169 q -0.40049,0 -0.40049,0.18595 0,0.0215 0.0429,0.12873 l 0.79384,1.9238 0.72232,-1.75931 q 0.0429,-0.10018 0.0429,-0.17164 0,-0.29322 -0.33613,-0.30753 v -0.22169 q 0.47201,0.0214 0.62219,0.0214 0.29322,0 0.53638,-0.0214 v 0.22169 q -0.47916,0 -0.66511,0.45772 l -1.25869,3.05376 q -0.34328,0.81529 -0.91542,0.81529 -0.27176,0 -0.46486,-0.17164 -0.19309,-0.16455 -0.19309,-0.40765 z"
         id="path5238"
         style="fill:#cccccc;stroke-width:0.264583" />
      <path
         d="m 110.60511,176.7677 q 0,-0.05 0.0644,-0.12873 l 1.99532,-2.69618 h -0.81529 q -0.56498,0 -0.75093,0.2074 -0.17879,0.2074 -0.21455,0.78669 h -0.17879 l 0.0787,-1.15142 h 2.28853 q 0.0787,0 0.10728,0.007 0.0358,0 0.0572,0.0214 0.0215,0.0215 0.0215,0.0644 0,0.0429 -0.0644,0.12163 l -1.98817,2.68902 h 0.8439 q 0.59359,0 0.79384,-0.24315 0.20024,-0.25032 0.25031,-0.91542 h 0.17879 l -0.12159,1.33737 h -2.36005 q -0.11442,0 -0.15019,-0.0135 -0.0358,-0.0135 -0.0358,-0.0858 z"
         id="path5240"
         style="fill:#cccccc;stroke-width:0.264583" />
      <path
         d="m 22.557165,184.98801 v -0.22171 h 0.05722 q 0.336129,0 0.414798,-0.0573 0.08582,-0.0573 0.08582,-0.27175 v -2.31 h -0.557832 v -0.21456 h 0.557832 v -0.80098 q 0,-0.56498 0.472011,-0.86535 0.479163,-0.30037 1.058448,-0.30037 0.400495,0 0.657956,0.20739 0.264612,0.2074 0.264612,0.50063 0,0.15728 -0.10013,0.2503 -0.09297,0.0929 -0.228852,0.0929 -0.135878,0 -0.236007,-0.0929 -0.09297,-0.0929 -0.09297,-0.23601 0,-0.14309 0.09297,-0.22884 0.100129,-0.0929 0.250308,-0.10018 -0.264612,-0.22886 -0.622195,-0.22886 -0.37904,0 -0.722321,0.25031 -0.336129,0.24316 -0.336129,0.75808 v 0.79383 h 0.972629 v -0.0135 l 1.036995,-0.0787 v 2.65329 q 0,0.18593 0.09297,0.24315 0.100129,0.05 0.386191,0.05 h 0.07151 v 0.2217 q -0.407646,-0.0215 -0.815292,-0.0215 -0.38619,0 -0.772381,0.0215 v -0.2217 h 0.07151 q 0.307522,0 0.393343,-0.0573 0.08582,-0.0573 0.08582,-0.25746 v -1.67349 q 0,-0.0358 0,-0.10018 0.0071,-0.0644 0.0071,-0.0929 0,-0.27891 -0.07151,-0.36473 -0.06437,-0.0929 -0.328977,-0.0929 h -1.10851 v 2.31 q 0,0.21455 0.07867,0.27175 0.07867,0.0573 0.421948,0.0573 h 0.05722 v 0.22172 q -0.407646,-0.0215 -0.822443,-0.0215 -0.386191,0 -0.772383,0.0215 z"
         id="path5242"
         style="stroke-width:0.264583" />
    </g>
  </g>
</svg>
